<svg width="768" height="1024" viewBox="0 0 768 1024" fill="none" xmlns="http://www.w3.org/2000/svg">
<path d="M716.082 281.924C716.082 281.924 668.499 171.529 563.534 155.179C458.569 138.828 385.091 218.551 307.781 259.439C267.277 280.837 221.043 272.529 178.056 282.89C40.5083 316.025 -11.2604 523.653 45.9844 641.728C95.543 743.935 182.769 797.092 315.604 809.361C448.438 821.63 541.629 835.927 660.578 735.748C779.526 635.569 771.606 427.072 716.082 281.924Z" fill="#DDEEE2"/>
<path d="M529.729 720.708L571.105 784.403L507.961 865.182L348.214 880.22L272.903 814.12L309.769 748.123L361.68 712.252L529.729 720.708Z" fill="#DACD8F" stroke="#181B1A" stroke-width="2"/>
<path d="M260.632 820.763C261.296 821.311 262.197 822.073 263.304 823.021C265.516 824.915 268.536 827.537 272.089 830.643C279.194 836.855 288.423 844.992 297.571 853.082C306.719 861.172 315.785 869.214 322.564 875.233C325.954 878.242 328.772 880.746 330.742 882.497C331.727 883.373 332.5 884.06 333.027 884.529C333.124 884.615 333.212 884.693 333.292 884.764L302.501 955.144L190.198 900.375L210.8 850.184L259.943 820.206C260.129 820.353 260.36 820.538 260.632 820.763Z" fill="#DACD8F" stroke="#181B1A" stroke-width="2"/>
<path d="M605.006 877.499L634.308 915.675C634.303 915.732 634.296 915.812 634.278 915.916C634.2 916.357 634.009 917.016 633.699 917.894C633.082 919.635 632.051 922.067 630.725 924.973C628.076 930.777 624.295 938.382 620.425 945.951C616.556 953.517 612.605 961.036 609.62 966.664C608.128 969.477 606.877 971.818 606 973.455C605.593 974.215 605.266 974.823 605.033 975.257L479.281 928.1L528.422 877.499L605.006 877.499Z" fill="#DACD8F" stroke="#181B1A" stroke-width="2"/>
<path d="M282.554 725.031L298.273 744.084L261.778 803.265L202.692 838.518C202.642 838.521 202.584 838.525 202.52 838.529C202.247 838.548 201.842 838.575 201.314 838.611C200.258 838.682 198.708 838.787 196.733 838.92C192.784 839.186 187.135 839.565 180.338 840.02C166.744 840.929 148.557 842.138 130.182 843.34C111.807 844.542 93.2452 845.738 78.9039 846.617C71.7331 847.057 65.619 847.417 61.1115 847.661C57.8867 847.835 55.5202 847.944 54.1718 847.985L65.2429 777.869L161.749 732.985L282.554 725.031Z" fill="#DACD8F" stroke="#181B1A" stroke-width="2"/>
<path d="M512.85 876.769L457.432 933.151L388.678 961.232L317.419 950.698L341.193 893.935L512.85 876.769Z" fill="#DACD8F" stroke="#181B1A" stroke-width="2"/>
<path d="M711.215 759.47L711.216 837.918L613.694 865.613L522.631 865.613L588.269 786.639L588.747 786.065L588.331 785.444L546.222 722.523L711.215 759.47Z" fill="#DACD8F" stroke="#181B1A" stroke-width="2"/>
<path d="M198.984 851.583L172.736 916.719L114.223 938.858L80.3144 898.119L94.2492 857.273L198.984 851.583Z" fill="#DACD8F" stroke="#181B1A" stroke-width="2"/>
<path d="M695.186 921.384L647.041 915.062L618.685 878.054L707.728 852.407L695.186 921.384Z" fill="#DACD8F" stroke="#181B1A" stroke-width="2"/>
<path d="M379.093 685.86C379.093 685.86 375.848 668.285 364.114 656.576C352.38 644.868 338.153 643.596 327.769 640.299C320.266 637.516 313.255 633.555 307 628.564C307 628.564 319.383 657.121 327.198 666.987C335.012 676.852 345.37 683.264 351.938 684.562C358.506 685.86 379.093 685.86 379.093 685.86Z" fill="#63A680" stroke="#181B1A" stroke-width="2" stroke-miterlimit="10"/>
<path d="M398.642 579.057C398.642 579.057 398.642 562.779 405.132 554.965C411.622 547.151 446.176 536.065 446.176 536.065C446.176 536.065 436.389 556.263 422.811 567.218C409.234 578.174 398.642 579.057 398.642 579.057Z" fill="#63A680" stroke="#181B1A" stroke-width="2" stroke-miterlimit="10"/>
<path d="M389.504 592.764C389.504 592.764 381.716 592.115 379.12 571.269C376.524 550.422 388.881 512 388.881 512C388.881 512 401.861 543.153 399.966 562.805C398.071 582.458 396.02 581.653 389.504 592.764Z" fill="#63A680" stroke="#181B1A" stroke-width="2" stroke-miterlimit="10"/>
<path d="M399.94 648.762C399.94 648.762 401.238 621.399 418.813 611.638C432.564 604.345 446.699 597.802 461.156 592.037C461.156 592.037 453.99 616.129 444.203 626.539C434.416 636.949 424.681 649.333 415.646 652.5C412.942 653.423 410.032 653.562 407.253 652.9C404.474 652.238 401.938 650.804 399.94 648.762Z" fill="#63A680" stroke="#181B1A" stroke-width="2" stroke-miterlimit="10"/>
<path d="M374.602 603.174C368.816 589.551 359.594 577.663 347.836 568.672C328.314 553.693 317.229 553.096 317.229 553.096C317.229 553.096 321.798 580.432 337.426 594.114C353.055 607.795 374.602 603.174 374.602 603.174Z" fill="#63A680" stroke="#181B1A" stroke-width="2" stroke-miterlimit="10"/>
<path d="M390.178 732.096V573.216" stroke="#181B1A" stroke-width="2" stroke-miterlimit="10"/>
<path d="M390.828 695.647L356.949 665.039" stroke="#181B1A" stroke-width="2" stroke-miterlimit="10"/>
<path d="M391.477 658.523L427.926 625.319" stroke="#181B1A" stroke-width="2" stroke-miterlimit="10"/>
<path d="M390.179 615.532L347.836 584.95" stroke="#181B1A" stroke-width="2" stroke-miterlimit="10"/>
<path d="M391.477 586.248L412.946 565.402" stroke="#181B1A" stroke-width="2" stroke-miterlimit="10"/>
<path d="M445.788 750.91L450.429 760.981L342.465 759.752L370.29 733.165L413.755 729.029L445.788 750.91Z" fill="#BAAD6C" stroke="#181B1A" stroke-width="2"/>
<path d="M384.368 81.2374C384.04 81.2374 383.725 81.107 383.493 80.875C383.261 80.6429 383.131 80.3282 383.131 80V59.2373C383.131 58.9092 383.261 58.5945 383.493 58.3624C383.725 58.1304 384.04 58 384.368 58C384.694 58.0063 385.005 58.1387 385.236 58.3694C385.467 58.6001 385.599 58.9112 385.606 59.2373V79.9258C385.612 80.0936 385.585 80.261 385.526 80.4183C385.467 80.5755 385.378 80.7195 385.263 80.8416C385.147 80.9638 385.009 81.0617 384.855 81.1296C384.702 81.1976 384.536 81.2342 384.368 81.2374Z" fill="#181B1A"/>
<path d="M384.368 352.835C384.04 352.835 383.725 352.705 383.493 352.473C383.261 352.241 383.131 351.926 383.131 351.598V334.473C383.131 334.145 383.261 333.83 383.493 333.598C383.725 333.366 384.04 333.236 384.368 333.236C384.694 333.242 385.005 333.375 385.236 333.605C385.467 333.836 385.599 334.147 385.606 334.473V351.598C385.606 351.926 385.475 352.241 385.243 352.473C385.011 352.705 384.696 352.835 384.368 352.835Z" fill="#181B1A"/>
<path d="M530.474 208.462H511.592C511.264 208.462 510.949 208.331 510.717 208.099C510.485 207.867 510.355 207.552 510.355 207.224C510.361 206.898 510.494 206.587 510.724 206.356C510.955 206.126 511.266 205.993 511.592 205.987H530.474C530.802 205.987 531.117 206.117 531.349 206.349C531.581 206.581 531.712 206.896 531.712 207.224C531.712 207.552 531.581 207.867 531.349 208.099C531.117 208.331 530.802 208.462 530.474 208.462Z" fill="#181B1A"/>
<path d="M257.119 208.462H238.237C237.909 208.462 237.594 208.331 237.362 208.099C237.13 207.867 237 207.552 237 207.224C237 206.896 237.13 206.581 237.362 206.349C237.594 206.117 237.909 205.987 238.237 205.987H257.119C257.445 205.993 257.757 206.126 257.987 206.356C258.218 206.587 258.35 206.898 258.357 207.224C258.357 207.552 258.226 207.867 257.994 208.099C257.762 208.331 257.447 208.462 257.119 208.462Z" fill="#181B1A"/>
<path d="M474.324 118.63C473.997 118.625 473.686 118.492 473.457 118.259C473.229 118.023 473.102 117.708 473.102 117.38C473.102 117.052 473.229 116.737 473.457 116.502L487.687 102.272C487.802 102.157 487.939 102.065 488.09 102.003C488.241 101.94 488.402 101.908 488.566 101.908C488.729 101.908 488.89 101.94 489.041 102.003C489.192 102.065 489.329 102.157 489.444 102.272C489.559 102.387 489.651 102.524 489.713 102.675C489.776 102.826 489.808 102.987 489.808 103.151C489.808 103.314 489.776 103.475 489.713 103.626C489.651 103.777 489.559 103.914 489.444 104.029L475.215 118.259C474.979 118.496 474.658 118.629 474.324 118.63Z" fill="#181B1A"/>
<path d="M281.916 310.939C281.754 310.938 281.594 310.904 281.445 310.84C281.296 310.777 281.162 310.684 281.05 310.567C280.934 310.452 280.842 310.315 280.779 310.165C280.716 310.014 280.684 309.852 280.684 309.689C280.684 309.525 280.716 309.364 280.779 309.213C280.842 309.062 280.934 308.925 281.05 308.81L293.423 296.437C293.538 296.321 293.675 296.229 293.826 296.166C293.977 296.103 294.138 296.071 294.302 296.071C294.465 296.071 294.627 296.103 294.777 296.166C294.928 296.229 295.065 296.321 295.18 296.437C295.299 296.548 295.393 296.682 295.457 296.831C295.522 296.98 295.555 297.141 295.555 297.303C295.555 297.465 295.522 297.626 295.457 297.775C295.393 297.924 295.299 298.058 295.18 298.169L282.807 310.543C282.692 310.664 282.554 310.762 282.401 310.83C282.248 310.898 282.083 310.935 281.916 310.939Z" fill="#181B1A"/>
<path d="M294.388 118.63C294.054 118.629 293.733 118.496 293.497 118.259L279.268 104.029C279.035 103.796 278.904 103.48 278.904 103.151C278.904 102.821 279.035 102.505 279.268 102.272C279.501 102.039 279.817 101.908 280.146 101.908C280.476 101.908 280.792 102.039 281.025 102.272L295.254 116.502C295.37 116.617 295.462 116.753 295.525 116.904C295.588 117.055 295.62 117.217 295.62 117.38C295.62 117.543 295.588 117.705 295.525 117.856C295.462 118.007 295.37 118.144 295.254 118.259C295.142 118.375 295.007 118.468 294.859 118.532C294.71 118.596 294.55 118.629 294.388 118.63Z" fill="#181B1A"/>
<path d="M486.796 310.939C486.634 310.941 486.473 310.909 486.324 310.845C486.174 310.781 486.04 310.686 485.93 310.567L473.556 298.194C473.33 297.963 473.203 297.652 473.203 297.328C473.203 297.004 473.33 296.693 473.556 296.462C473.671 296.346 473.808 296.254 473.959 296.191C474.11 296.128 474.272 296.096 474.435 296.096C474.598 296.096 474.76 296.128 474.911 296.191C475.061 296.254 475.198 296.346 475.313 296.462L487.687 308.835C487.803 308.95 487.895 309.087 487.958 309.238C488.021 309.389 488.053 309.55 488.053 309.714C488.053 309.877 488.021 310.039 487.958 310.19C487.895 310.34 487.803 310.477 487.687 310.592C487.571 310.71 487.432 310.801 487.279 310.861C487.125 310.921 486.961 310.947 486.796 310.939Z" fill="#181B1A"/>
<path d="M384.368 256.743C412.687 256.743 435.644 233.786 435.644 205.467C435.644 177.148 412.687 154.191 384.368 154.191C356.05 154.191 333.093 177.148 333.093 205.467C333.093 233.786 356.05 256.743 384.368 256.743Z" fill="#FFE66D"/>
<path d="M384.368 257.98C373.982 257.98 363.829 254.9 355.193 249.13C346.558 243.36 339.827 235.159 335.852 225.563C331.878 215.968 330.838 205.409 332.864 195.222C334.89 185.036 339.892 175.679 347.236 168.335C354.58 160.991 363.937 155.989 374.123 153.963C384.31 151.937 394.868 152.977 404.464 156.951C414.059 160.926 422.261 167.657 428.031 176.292C433.801 184.928 436.881 195.081 436.881 205.467C436.868 219.39 431.331 232.74 421.486 242.585C411.641 252.43 398.291 257.967 384.368 257.98ZM384.368 155.429C374.471 155.429 364.797 158.364 356.568 163.862C348.339 169.36 341.926 177.175 338.139 186.318C334.351 195.462 333.36 205.523 335.291 215.229C337.222 224.936 341.988 233.852 348.986 240.85C355.984 247.848 364.9 252.613 374.606 254.544C384.313 256.475 394.374 255.484 403.517 251.697C412.66 247.909 420.475 241.496 425.973 233.267C431.472 225.038 434.406 215.364 434.406 205.467C434.393 192.2 429.117 179.48 419.736 170.099C410.355 160.718 397.635 155.442 384.368 155.429Z" fill="#181B1A"/>
<path d="M384.368 143.649C384.04 143.649 383.725 143.519 383.493 143.287C383.261 143.055 383.131 142.74 383.131 142.412V104.697C383.131 104.369 383.261 104.054 383.493 103.822C383.725 103.59 384.04 103.46 384.368 103.46C384.696 103.46 385.011 103.59 385.243 103.822C385.475 104.054 385.606 104.369 385.606 104.697V142.412C385.599 142.738 385.467 143.049 385.236 143.28C385.005 143.51 384.694 143.643 384.368 143.649Z" fill="#181B1A"/>
<path d="M384.368 311.038C384.04 311.038 383.725 310.907 383.493 310.675C383.261 310.443 383.131 310.128 383.131 309.8V272.061C383.131 271.733 383.261 271.418 383.493 271.186C383.725 270.954 384.04 270.824 384.368 270.824C384.694 270.83 385.005 270.962 385.236 271.193C385.467 271.424 385.599 271.735 385.606 272.061V309.8C385.599 310.126 385.467 310.437 385.236 310.668C385.005 310.899 384.694 311.031 384.368 311.038Z" fill="#181B1A"/>
<path d="M486.92 208.486H449.181C448.855 208.48 448.544 208.348 448.313 208.117C448.082 207.886 447.95 207.575 447.943 207.249C447.943 206.921 448.074 206.606 448.306 206.374C448.538 206.142 448.853 206.012 449.181 206.012H486.92C487.248 206.012 487.563 206.142 487.795 206.374C488.027 206.606 488.157 206.921 488.157 207.249C488.151 207.575 488.018 207.886 487.788 208.117C487.557 208.348 487.246 208.48 486.92 208.486Z" fill="#181B1A"/>
<path d="M319.531 208.486H281.817C281.489 208.486 281.174 208.356 280.942 208.124C280.71 207.892 280.58 207.577 280.58 207.249C280.58 206.921 280.71 206.606 280.942 206.374C281.174 206.142 281.489 206.012 281.817 206.012H319.531C319.859 206.012 320.174 206.142 320.406 206.374C320.638 206.606 320.769 206.921 320.769 207.249C320.762 207.575 320.63 207.886 320.399 208.117C320.168 208.348 319.857 208.48 319.531 208.486Z" fill="#181B1A"/>
<path d="M430.2 162.63C429.957 162.627 429.721 162.552 429.521 162.416C429.321 162.28 429.165 162.088 429.073 161.864C428.98 161.64 428.956 161.394 429.002 161.156C429.049 160.919 429.164 160.7 429.333 160.527L456.011 133.85C456.122 133.731 456.256 133.637 456.405 133.572C456.554 133.508 456.714 133.475 456.877 133.475C457.039 133.475 457.2 133.508 457.349 133.572C457.498 133.637 457.632 133.731 457.743 133.85C457.859 133.965 457.951 134.101 458.014 134.252C458.077 134.403 458.109 134.565 458.109 134.728C458.109 134.891 458.077 135.053 458.014 135.204C457.951 135.355 457.859 135.492 457.743 135.607L431.115 162.259C430.999 162.384 430.857 162.483 430.699 162.547C430.54 162.611 430.37 162.639 430.2 162.63Z" fill="#181B1A"/>
<path d="M311.835 280.995C311.509 280.99 311.197 280.857 310.969 280.623C310.741 280.388 310.613 280.073 310.613 279.745C310.613 279.417 310.741 279.102 310.969 278.866L337.646 252.263C337.761 252.147 337.898 252.055 338.049 251.993C338.199 251.93 338.361 251.897 338.524 251.897C338.688 251.897 338.85 251.93 339 251.993C339.151 252.055 339.288 252.147 339.403 252.263C339.63 252.495 339.757 252.806 339.757 253.13C339.757 253.453 339.63 253.764 339.403 253.996L312.726 280.673C312.482 280.892 312.162 281.007 311.835 280.995Z" fill="#181B1A"/>
<path d="M338.512 162.63C338.35 162.629 338.19 162.596 338.042 162.532C337.893 162.468 337.758 162.375 337.646 162.259L310.969 135.606C310.741 135.371 310.613 135.056 310.613 134.728C310.613 134.4 310.741 134.085 310.969 133.849C311.084 133.733 311.221 133.641 311.371 133.579C311.522 133.516 311.684 133.483 311.847 133.483C312.011 133.483 312.172 133.516 312.323 133.579C312.474 133.641 312.611 133.733 312.726 133.849L339.403 160.527C339.63 160.758 339.757 161.069 339.757 161.393C339.757 161.717 339.63 162.028 339.403 162.259C339.167 162.496 338.847 162.629 338.512 162.63Z" fill="#181B1A"/>
<path d="M456.877 280.995C456.714 280.997 456.554 280.965 456.404 280.901C456.255 280.837 456.121 280.743 456.011 280.624L429.333 253.947C429.104 253.717 428.975 253.405 428.975 253.08C428.975 252.756 429.104 252.444 429.333 252.214C429.563 251.985 429.875 251.855 430.199 251.855C430.524 251.855 430.836 251.985 431.066 252.214L457.743 278.867C457.859 278.982 457.951 279.119 458.014 279.269C458.077 279.42 458.109 279.582 458.109 279.745C458.109 279.909 458.077 280.07 458.014 280.221C457.951 280.372 457.859 280.509 457.743 280.624C457.632 280.743 457.498 280.837 457.349 280.901C457.2 280.965 457.039 280.997 456.877 280.995Z" fill="#181B1A"/>
<path d="M642.678 566.936V307.489C642.678 301.055 640.123 294.884 635.576 290.332C631.028 285.78 624.86 283.219 618.425 283.212C611.991 283.219 605.823 285.78 601.275 290.332C596.728 294.884 594.173 301.055 594.173 307.489V565.452C584.814 570.504 577.382 578.502 573.028 588.206C568.673 597.911 567.64 608.78 570.088 619.13C572.536 629.481 578.328 638.736 586.568 645.462C594.807 652.188 605.035 656.009 615.666 656.335C626.297 656.66 636.739 653.471 645.375 647.262C654.011 641.053 660.358 632.17 663.434 621.988C666.511 611.806 666.144 600.894 662.392 590.942C658.639 580.99 651.71 572.552 642.678 566.936Z" fill="#FAFBFB"/>
<path d="M617.262 657.486C615.328 657.476 613.395 657.368 611.471 657.164C601.042 655.998 591.253 651.548 583.519 644.455C575.784 637.362 570.504 627.995 568.441 617.705C566.378 607.416 567.639 596.737 572.042 587.211C576.445 577.685 583.762 569.805 592.936 564.709V307.489C592.936 300.729 595.622 294.246 600.402 289.466C605.182 284.685 611.665 282 618.425 282C625.186 282 631.669 284.685 636.449 289.466C641.229 294.246 643.915 300.729 643.915 307.489V566.268C652.943 572.029 659.859 580.563 663.625 590.59C667.391 600.616 667.803 611.593 664.799 621.873C661.795 632.153 655.538 641.181 646.967 647.603C638.395 654.024 627.972 657.492 617.262 657.486ZM618.425 284.351C612.321 284.364 606.471 286.796 602.157 291.115C597.843 295.434 595.417 301.286 595.411 307.39V566.169L594.767 566.541C585.676 571.461 578.459 579.239 574.234 588.673C570.009 598.108 569.01 608.671 571.393 618.73C573.775 628.789 579.406 637.782 587.414 644.319C595.423 650.855 605.362 654.571 615.694 654.89C626.026 655.209 636.176 652.114 644.572 646.084C652.969 640.055 659.144 631.426 662.143 621.533C665.142 611.641 664.797 601.036 661.162 591.359C657.527 581.682 650.804 573.472 642.034 568.001L641.44 567.629V307.489C641.45 304.458 640.862 301.455 639.71 298.652C638.559 295.848 636.866 293.299 634.729 291.15C632.591 289.001 630.051 287.295 627.254 286.128C624.456 284.961 621.456 284.357 618.425 284.351Z" fill="#181B1A"/>
<path d="M627.21 571.886V363.739H609.64V571.243C600.633 573.066 592.607 578.13 587.084 585.476C581.561 592.821 578.924 601.937 579.673 611.096C580.422 620.256 584.505 628.822 591.148 635.173C597.79 641.524 606.532 645.217 615.716 645.553C624.9 645.889 633.888 642.845 640.977 636.998C648.067 631.15 652.765 622.905 654.182 613.825C655.599 604.745 653.636 595.46 648.665 587.731C643.694 580.001 636.06 574.364 627.21 571.886Z" fill="#91C4A6"/>
<path d="M617.188 646.597C607.698 646.593 598.541 643.101 591.458 636.784C584.376 630.467 579.863 621.767 578.778 612.339C577.693 602.912 580.112 593.414 585.575 585.654C591.037 577.893 599.162 572.412 608.403 570.253V362.502H628.448V570.97C637.307 573.673 644.9 579.467 649.847 587.298C654.793 595.128 656.764 604.474 655.4 613.635C654.036 622.796 649.428 631.162 642.415 637.212C635.402 643.262 626.45 646.592 617.188 646.597ZM610.878 364.977V572.257L609.888 572.455C601.185 574.222 593.433 579.119 588.099 586.219C582.766 593.319 580.221 602.129 580.948 610.979C581.675 619.829 585.623 628.106 592.044 634.24C598.465 640.375 606.912 643.941 615.786 644.264C624.661 644.587 633.345 641.644 640.195 635.992C647.044 630.341 651.583 622.373 652.951 613.599C654.32 604.825 652.423 595.854 647.619 588.385C642.816 580.916 635.44 575.469 626.889 573.074L625.973 572.826V364.952L610.878 364.977Z" fill="#181B1A"/>
<path d="M602.043 604.131C607.797 604.131 612.461 599.467 612.461 593.713C612.461 587.959 607.797 583.294 602.043 583.294C596.289 583.294 591.625 587.959 591.625 593.713C591.625 599.467 596.289 604.131 602.043 604.131Z" fill="#FAFBFB"/>
<path d="M614.342 336.319H601.078C600.751 336.313 600.44 336.181 600.21 335.95C599.979 335.719 599.847 335.408 599.84 335.082C599.84 334.754 599.971 334.439 600.203 334.207C600.435 333.975 600.75 333.845 601.078 333.845H614.342C614.67 333.845 614.985 333.975 615.217 334.207C615.449 334.439 615.579 334.754 615.579 335.082C615.579 335.41 615.449 335.725 615.217 335.957C614.985 336.189 614.67 336.319 614.342 336.319Z" fill="#181B1A"/>
<path d="M614.342 356.117H601.078C600.75 356.117 600.435 355.987 600.203 355.755C599.971 355.523 599.84 355.208 599.84 354.88C599.847 354.554 599.979 354.243 600.21 354.012C600.44 353.781 600.751 353.649 601.078 353.643H614.342C614.67 353.643 614.985 353.773 615.217 354.005C615.449 354.237 615.579 354.552 615.579 354.88C615.579 355.208 615.449 355.523 615.217 355.755C614.985 355.987 614.67 356.117 614.342 356.117Z" fill="#181B1A"/>
<path d="M614.342 376.113H601.078C600.75 376.113 600.435 375.983 600.203 375.751C599.971 375.518 599.84 375.204 599.84 374.876C599.847 374.549 599.979 374.238 600.21 374.008C600.44 373.777 600.751 373.645 601.078 373.638H614.342C614.67 373.638 614.985 373.769 615.217 374.001C615.449 374.233 615.579 374.547 615.579 374.876C615.579 375.204 615.449 375.518 615.217 375.751C614.985 375.983 614.67 376.113 614.342 376.113Z" fill="#181B1A"/>
<path d="M614.342 396.009H601.078C600.75 396.009 600.435 395.879 600.203 395.647C599.971 395.415 599.84 395.1 599.84 394.772C599.847 394.446 599.979 394.135 600.21 393.904C600.44 393.673 600.751 393.541 601.078 393.535H614.342C614.67 393.535 614.985 393.665 615.217 393.897C615.449 394.129 615.579 394.444 615.579 394.772C615.579 395.1 615.449 395.415 615.217 395.647C614.985 395.879 614.67 396.009 614.342 396.009Z" fill="#181B1A"/>
<path d="M614.342 415.906H601.078C600.75 415.906 600.435 415.775 600.203 415.543C599.971 415.311 599.84 414.997 599.84 414.669C599.847 414.342 599.979 414.031 600.21 413.801C600.44 413.57 600.751 413.437 601.078 413.431H614.342C614.67 413.431 614.985 413.562 615.217 413.794C615.449 414.026 615.579 414.34 615.579 414.669C615.579 414.997 615.449 415.311 615.217 415.543C614.985 415.775 614.67 415.906 614.342 415.906Z" fill="#181B1A"/>
<path d="M614.342 435.802H601.078C600.75 435.802 600.435 435.672 600.203 435.44C599.971 435.208 599.84 434.893 599.84 434.565C599.84 434.237 599.971 433.922 600.203 433.69C600.435 433.458 600.75 433.328 601.078 433.328H614.342C614.67 433.328 614.985 433.458 615.217 433.69C615.449 433.922 615.579 434.237 615.579 434.565C615.579 434.893 615.449 435.208 615.217 435.44C614.985 435.672 614.67 435.802 614.342 435.802Z" fill="#181B1A"/>
<path d="M614.342 455.699H601.078C600.75 455.699 600.435 455.569 600.203 455.336C599.971 455.104 599.84 454.79 599.84 454.461C599.84 454.133 599.971 453.819 600.203 453.587C600.435 453.355 600.75 453.224 601.078 453.224H614.342C614.67 453.224 614.985 453.355 615.217 453.587C615.449 453.819 615.579 454.133 615.579 454.461C615.579 454.79 615.449 455.104 615.217 455.336C614.985 455.569 614.67 455.699 614.342 455.699Z" fill="#181B1A"/>
<path d="M614.342 475.595H601.078C600.751 475.589 600.44 475.457 600.21 475.226C599.979 474.995 599.847 474.684 599.84 474.358C599.84 474.03 599.971 473.715 600.203 473.483C600.435 473.251 600.75 473.121 601.078 473.121H614.342C614.67 473.121 614.985 473.251 615.217 473.483C615.449 473.715 615.579 474.03 615.579 474.358C615.579 474.686 615.449 475.001 615.217 475.233C614.985 475.465 614.67 475.595 614.342 475.595Z" fill="#181B1A"/>
<path d="M614.342 495.492H601.078C600.751 495.486 600.44 495.354 600.21 495.123C599.979 494.892 599.847 494.581 599.84 494.255C599.84 493.927 599.971 493.612 600.203 493.38C600.435 493.148 600.75 493.018 601.078 493.018H614.342C614.67 493.018 614.985 493.148 615.217 493.38C615.449 493.612 615.579 493.927 615.579 494.255C615.579 494.583 615.449 494.898 615.217 495.13C614.985 495.362 614.67 495.492 614.342 495.492Z" fill="#181B1A"/>
<path d="M614.342 515.389H601.078C600.751 515.382 600.44 515.25 600.21 515.019C599.979 514.789 599.847 514.478 599.84 514.151C599.84 513.823 599.971 513.509 600.203 513.276C600.435 513.044 600.75 512.914 601.078 512.914H614.342C614.67 512.914 614.985 513.044 615.217 513.276C615.449 513.509 615.579 513.823 615.579 514.151C615.579 514.48 615.449 514.794 615.217 515.026C614.985 515.258 614.67 515.389 614.342 515.389Z" fill="#181B1A"/>
<path d="M614.342 535.26H601.078C600.75 535.26 600.435 535.13 600.203 534.898C599.971 534.666 599.84 534.351 599.84 534.023C599.847 533.697 599.979 533.386 600.21 533.155C600.44 532.924 600.751 532.792 601.078 532.786H614.342C614.67 532.786 614.985 532.916 615.217 533.148C615.449 533.38 615.579 533.695 615.579 534.023C615.579 534.351 615.449 534.666 615.217 534.898C614.985 535.13 614.67 535.26 614.342 535.26Z" fill="#181B1A"/>
<path d="M614.342 555.157H601.078C600.75 555.157 600.435 555.026 600.203 554.794C599.971 554.562 599.84 554.248 599.84 553.919C599.847 553.593 599.979 553.282 600.21 553.052C600.44 552.821 600.751 552.688 601.078 552.682H614.342C614.67 552.682 614.985 552.813 615.217 553.045C615.449 553.277 615.579 553.591 615.579 553.919C615.579 554.248 615.449 554.562 615.217 554.794C614.985 555.026 614.67 555.157 614.342 555.157Z" fill="#181B1A"/>
<path d="M585.24 407.962L556.608 358.394L528 407.962H548.565V566.342H564.675V407.962H585.24Z" fill="#181B1A"/>
</svg>
