<svg width="768" height="1024" viewBox="0 0 768 1024" fill="none" xmlns="http://www.w3.org/2000/svg">
<g clip-path="url(#clip0_823_3138)">
<path d="M374.511 166.886C443.471 174.979 523.747 207.167 560.963 272.413C617.219 370.973 702.652 362.126 741.145 555C746.881 583.128 749.669 611.82 749.458 640.572C749.32 654.64 748.318 668.684 746.457 682.618C730.081 805.437 648.801 888.612 550.226 919.526C420.578 960.278 335.052 881.207 283.401 828.765C231.75 776.323 71.8858 738.799 32.6457 549.487C26.5469 520.612 23.6585 491.102 24.0377 461.54C25.2294 394.088 45.919 320.382 89.9238 269.186C93.1794 265.344 96.5998 261.604 100.185 257.965C169.371 186.759 280.547 155.949 374.511 166.886Z" fill="#DDEEE2"/>
<path d="M482.374 486.825C482.373 471.439 478.667 456.28 471.568 442.629C464.469 428.979 454.187 417.239 441.591 408.403C428.995 399.567 414.456 393.894 399.204 391.866C383.953 389.837 368.437 391.512 353.969 396.748C339.501 401.984 326.508 410.628 316.087 421.949C305.667 433.269 298.127 446.933 294.104 461.784C290.082 476.634 289.695 492.236 292.977 507.268C296.26 522.3 303.114 536.32 312.961 548.142C327.069 565.053 334.791 586.381 334.781 608.404V621.596H438.365V608.404C438.337 586.403 446.042 565.092 460.132 548.195C474.53 530.989 482.404 509.26 482.374 486.825Z" fill="#FBE88E"/>
<path d="M439.685 622.862H333.462V608.404C333.452 586.69 325.834 565.666 311.932 548.986C300.116 534.805 292.586 517.55 290.225 499.243C287.863 480.936 290.767 462.335 298.597 445.62C306.427 428.904 318.858 414.766 334.435 404.861C350.011 394.957 368.088 389.697 386.547 389.697C405.005 389.697 423.082 394.957 438.658 404.861C454.235 414.766 466.666 428.904 474.496 445.62C482.326 462.335 485.231 480.936 482.869 499.243C480.507 517.55 472.977 534.805 461.161 548.986C447.276 565.652 439.676 586.659 439.685 608.351V622.862ZM336.1 620.224H437.046V608.404C437.037 586.096 444.851 564.491 459.13 547.351C470.634 533.557 477.969 516.771 480.274 498.958C482.579 481.145 479.759 463.044 472.144 446.777C464.529 430.509 452.435 416.75 437.279 407.11C422.124 397.471 404.534 392.351 386.573 392.351C368.612 392.351 351.022 397.471 335.867 407.11C320.711 416.75 308.617 430.509 301.002 446.777C293.388 463.044 290.567 481.145 292.872 498.958C295.177 516.771 302.512 533.557 314.016 547.351C328.31 564.506 336.142 586.127 336.153 608.457L336.1 620.224Z" fill="#181B1A"/>
<path d="M379.66 621.068C379.406 621.068 379.162 620.969 378.979 620.792C378.797 620.614 378.691 620.373 378.684 620.118C377.339 591.096 375.333 560.965 373.117 538.037C371.146 536.012 369.443 533.742 368.051 531.283C362.326 521.362 359.529 506.455 364.753 498.698C365.624 497.432 366.547 497.458 367.022 497.59C370.188 498.487 372.906 515.61 374.938 537.166C376.327 538.626 378.009 539.778 379.872 540.546C381.736 541.314 383.74 541.682 385.755 541.625C388.781 541.235 391.578 539.809 393.67 537.588C396.098 517.035 400.029 500.466 404.91 498.302C405.483 497.968 406.146 497.819 406.807 497.875C407.468 497.932 408.096 498.192 408.604 498.619C411.585 501.257 409.606 511.02 407.021 518.433C404.623 525.742 400.773 532.491 395.702 538.274C392.43 566.4 391.665 602.415 395.702 618.614C395.733 618.739 395.74 618.869 395.721 618.996C395.703 619.124 395.659 619.246 395.593 619.356C395.526 619.467 395.439 619.563 395.336 619.639C395.232 619.716 395.114 619.771 394.99 619.802C394.734 619.866 394.464 619.828 394.237 619.694C394.01 619.561 393.844 619.344 393.776 619.089C389.897 603.575 390.214 568.748 393.327 540.438C391.272 542.212 388.72 543.308 386.019 543.578C382.171 543.749 378.4 542.458 375.465 539.963C378.236 568.748 380.056 604.261 380.742 619.96C380.749 620.092 380.73 620.224 380.686 620.348C380.642 620.472 380.574 620.587 380.486 620.685C380.398 620.783 380.291 620.863 380.172 620.919C380.053 620.976 379.924 621.009 379.792 621.015L379.66 621.068ZM406.572 499.912C406.242 499.92 405.918 500.001 405.622 500.149C401.797 501.864 398.34 516.349 395.992 534.95C399.91 529.785 402.966 524.021 405.042 517.879C408.314 508.592 408.683 501.6 407.153 500.176C406.999 500.017 406.792 499.923 406.572 499.912ZM366.574 499.569L366.389 499.806C362.168 506.059 363.751 519.753 369.766 530.306C370.658 531.848 371.663 533.321 372.774 534.713C370.769 514.766 368.579 501.02 366.574 499.569Z" fill="#181B1A"/>
<path d="M438.365 621.569H334.781V647.188H438.365V621.569Z" fill="#FAFBFB"/>
<path d="M438.365 648.191H334.781C334.515 648.191 334.26 648.085 334.072 647.897C333.884 647.709 333.778 647.454 333.778 647.188V621.569C333.778 621.439 333.804 621.31 333.855 621.19C333.906 621.069 333.98 620.961 334.074 620.87C334.167 620.779 334.278 620.707 334.399 620.66C334.521 620.612 334.651 620.59 334.781 620.593H438.365C438.494 620.593 438.621 620.618 438.739 620.667C438.858 620.717 438.965 620.788 439.056 620.879C439.146 620.97 439.218 621.077 439.267 621.196C439.316 621.314 439.342 621.441 439.342 621.569V647.162C439.345 647.294 439.323 647.425 439.276 647.548C439.228 647.671 439.157 647.783 439.067 647.879C438.976 647.974 438.868 648.051 438.747 648.105C438.627 648.158 438.497 648.188 438.365 648.191ZM335.757 646.212H437.363V622.466H335.757V646.212Z" fill="#181B1A"/>
<path d="M334.781 647.162H438.365V666.159C438.365 667.915 437.668 669.6 436.426 670.842C435.184 672.083 433.499 672.781 431.743 672.781H341.403C339.647 672.781 337.962 672.083 336.72 670.842C335.478 669.6 334.781 667.915 334.781 666.159V647.162Z" fill="#FAFBFB"/>
<path d="M431.743 673.863H341.403C339.386 673.863 337.45 673.063 336.021 671.639C334.592 670.215 333.785 668.282 333.778 666.264V647.162C333.778 646.896 333.884 646.641 334.072 646.453C334.26 646.265 334.515 646.16 334.781 646.16H438.365C438.627 646.167 438.875 646.275 439.057 646.462C439.24 646.65 439.342 646.901 439.342 647.162V666.159C439.356 667.166 439.169 668.165 438.794 669.099C438.418 670.033 437.861 670.884 437.154 671.6C436.447 672.317 435.604 672.886 434.675 673.275C433.747 673.663 432.75 673.863 431.743 673.863ZM335.757 648.244V666.264C335.764 667.757 336.362 669.187 337.42 670.24C338.478 671.293 339.91 671.884 341.403 671.884H431.743C433.231 671.877 434.657 671.283 435.709 670.231C436.762 669.178 437.356 667.753 437.363 666.264V648.244H335.757Z" fill="#181B1A"/>
<path d="M347.841 672.834H425.279V684.101C425.279 685.857 424.581 687.541 423.339 688.783C422.097 690.025 420.412 690.723 418.656 690.723H354.463C352.707 690.723 351.022 690.025 349.781 688.783C348.539 687.541 347.841 685.857 347.841 684.101V672.808V672.834Z" fill="#181B1A"/>
<path d="M418.656 692.015H354.463C352.364 692.015 350.351 691.181 348.866 689.697C347.382 688.212 346.548 686.199 346.548 684.1V671.488H426.624V684.1C426.624 685.144 426.418 686.177 426.017 687.141C425.615 688.105 425.028 688.98 424.287 689.716C423.546 690.451 422.668 691.033 421.701 691.428C420.735 691.823 419.7 692.022 418.656 692.015ZM349.16 674.1V684.1C349.16 685.499 349.716 686.842 350.705 687.831C351.695 688.821 353.037 689.377 354.437 689.377H418.63C420.029 689.377 421.371 688.821 422.361 687.831C423.351 686.842 423.906 685.499 423.906 684.1V674.127L349.16 674.1Z" fill="#181B1A"/>
<path d="M539.865 488.329H495.988C495.845 488.353 495.698 488.345 495.558 488.306C495.418 488.267 495.288 488.198 495.177 488.104C495.066 488.01 494.977 487.893 494.916 487.761C494.855 487.629 494.824 487.485 494.824 487.34C494.824 487.195 494.855 487.051 494.916 486.919C494.977 486.787 495.066 486.67 495.177 486.576C495.288 486.482 495.418 486.413 495.558 486.374C495.698 486.335 495.845 486.327 495.988 486.351H539.865C540.1 486.389 540.313 486.51 540.467 486.691C540.621 486.872 540.706 487.102 540.706 487.34C540.706 487.578 540.621 487.808 540.467 487.989C540.313 488.17 540.1 488.291 539.865 488.329Z" fill="#181B1A"/>
<path d="M273.596 488.329H229.165C229.021 488.353 228.874 488.345 228.734 488.306C228.594 488.267 228.464 488.198 228.353 488.104C228.243 488.01 228.154 487.893 228.093 487.761C228.032 487.629 228 487.485 228 487.34C228 487.195 228.032 487.051 228.093 486.919C228.154 486.787 228.243 486.67 228.353 486.576C228.464 486.482 228.594 486.413 228.734 486.374C228.874 486.335 229.021 486.327 229.165 486.351H273.596C273.739 486.327 273.886 486.335 274.026 486.374C274.166 486.413 274.296 486.482 274.407 486.576C274.518 486.67 274.607 486.787 274.668 486.919C274.729 487.051 274.76 487.195 274.76 487.34C274.76 487.485 274.729 487.629 274.668 487.761C274.607 487.893 274.518 488.01 274.407 488.104C274.296 488.198 274.166 488.267 274.026 488.306C273.886 488.345 273.739 488.353 273.596 488.329Z" fill="#181B1A"/>
<path d="M384.594 376.988C384.329 376.988 384.073 376.882 383.885 376.694C383.697 376.506 383.592 376.251 383.592 375.985V331.976C383.599 331.715 383.707 331.467 383.895 331.284C384.082 331.102 384.333 331 384.594 331C384.853 331 385.102 331.103 385.285 331.286C385.468 331.469 385.571 331.717 385.571 331.976V375.985C385.574 376.116 385.552 376.245 385.504 376.367C385.457 376.488 385.385 376.599 385.294 376.693C385.203 376.786 385.094 376.86 384.974 376.911C384.854 376.962 384.725 376.988 384.594 376.988Z" fill="#181B1A"/>
<path d="M464.064 408.781C463.806 408.775 463.561 408.672 463.378 408.49C463.285 408.399 463.21 408.291 463.16 408.171C463.109 408.05 463.083 407.921 463.083 407.791C463.083 407.661 463.109 407.532 463.16 407.412C463.21 407.292 463.285 407.183 463.378 407.092L493.667 376.776C493.759 376.685 493.868 376.612 493.988 376.562C494.108 376.512 494.236 376.487 494.366 376.487C494.496 376.487 494.625 376.512 494.745 376.562C494.865 376.612 494.974 376.685 495.065 376.776C495.157 376.868 495.23 376.977 495.28 377.097C495.329 377.217 495.355 377.346 495.355 377.476C495.355 377.605 495.329 377.734 495.28 377.854C495.23 377.974 495.157 378.083 495.065 378.175L464.776 408.49C464.584 408.673 464.329 408.777 464.064 408.781Z" fill="#181B1A"/>
<path d="M274.651 598.193C274.454 598.189 274.263 598.127 274.101 598.015C273.938 597.903 273.813 597.746 273.74 597.563C273.666 597.38 273.649 597.179 273.689 596.986C273.729 596.793 273.825 596.617 273.965 596.478L304.703 565.74C304.888 565.555 305.14 565.451 305.402 565.451C305.664 565.451 305.916 565.555 306.101 565.74C306.287 565.926 306.391 566.177 306.391 566.439C306.391 566.702 306.287 566.953 306.101 567.139L275.364 597.903C275.171 598.086 274.917 598.189 274.651 598.193Z" fill="#181B1A"/>
<path d="M304.069 407.883C303.815 407.888 303.569 407.794 303.383 407.62L273.965 378.175C273.872 378.084 273.797 377.975 273.747 377.855C273.696 377.735 273.67 377.606 273.67 377.476C273.67 377.345 273.696 377.216 273.747 377.096C273.797 376.976 273.872 376.867 273.965 376.776C274.155 376.6 274.405 376.502 274.664 376.502C274.923 376.502 275.173 376.6 275.363 376.776L304.782 406.195C304.96 406.389 305.058 406.644 305.058 406.907C305.058 407.171 304.96 407.425 304.782 407.62C304.588 407.798 304.332 407.892 304.069 407.883Z" fill="#181B1A"/>
<path d="M494.353 598.193C494.096 598.188 493.85 598.084 493.667 597.903L464.354 568.59C464.178 568.4 464.08 568.15 464.08 567.891C464.08 567.632 464.178 567.382 464.354 567.192C464.447 567.098 464.558 567.023 464.681 566.972C464.803 566.921 464.934 566.895 465.067 566.895C465.199 566.895 465.33 566.921 465.452 566.972C465.575 567.023 465.686 567.098 465.779 567.192L495.065 596.478C495.243 596.673 495.342 596.927 495.342 597.191C495.342 597.454 495.243 597.708 495.065 597.903C494.874 598.088 494.619 598.192 494.353 598.193Z" fill="#181B1A"/>
<path d="M272.387 111.264L303.776 129.898C304.106 130.087 304.497 130.138 304.863 130.039C305.23 129.94 305.542 129.7 305.731 129.37C305.92 129.041 305.971 128.65 305.872 128.284C305.773 127.917 305.532 127.605 305.203 127.416L273.842 108.696C273.513 108.503 273.121 108.449 272.751 108.545C272.382 108.641 272.066 108.881 271.873 109.21C271.68 109.539 271.626 109.931 271.722 110.301C271.819 110.67 272.058 110.986 272.387 111.179V111.264Z" fill="#2E3330"/>
<path d="M268.363 118.027C278.807 124.248 289.271 130.459 299.753 136.661C300.082 136.851 300.473 136.901 300.839 136.802C301.206 136.703 301.518 136.463 301.707 136.133C301.897 135.804 301.947 135.413 301.848 135.047C301.749 134.68 301.509 134.368 301.179 134.179L269.79 115.545C269.461 115.352 269.068 115.297 268.699 115.394C268.33 115.49 268.014 115.729 267.821 116.058C267.628 116.388 267.574 116.78 267.67 117.149C267.766 117.519 268.006 117.834 268.335 118.027H268.363Z" fill="#2E3330"/>
<path d="M236.004 71L216 104.672L266.166 134.492L285.685 101.648L286.141 100.763L236.004 71Z" fill="#2E3330"/>
<path d="M237.109 74.9029L219.941 103.771L265.168 130.667L282.336 101.799L237.109 74.9029Z" fill="#FAFBFB"/>
<path d="M252.678 82.5264L250.558 81.2915L232.121 112.955L234.242 114.19L252.678 82.5264Z" fill="#2E3330"/>
<path d="M227.866 87.7996L226.631 89.9204L274.201 117.618L275.436 115.497L227.866 87.7996Z" fill="#2E3330"/>
<path d="M268.816 91.8238L266.695 90.5894L248.265 122.256L250.386 123.491L268.816 91.8238Z" fill="#2E3330"/>
<path d="M342.328 157.892C331.865 151.69 321.402 145.479 310.939 139.258C310.608 139.098 310.23 139.07 309.879 139.177C309.528 139.285 309.231 139.521 309.047 139.839C308.863 140.156 308.805 140.532 308.886 140.89C308.967 141.248 309.181 141.562 309.483 141.769L340.873 160.375C341.202 160.568 341.595 160.622 341.964 160.526C342.333 160.429 342.649 160.19 342.842 159.861C343.035 159.532 343.089 159.139 342.993 158.77C342.897 158.401 342.657 158.085 342.328 157.892Z" fill="#2E3330"/>
<path d="M346.352 151.129L314.963 132.495C314.632 132.335 314.254 132.306 313.903 132.414C313.552 132.522 313.255 132.758 313.071 133.076C312.887 133.393 312.829 133.769 312.91 134.127C312.991 134.484 313.205 134.799 313.507 135.006L344.897 153.611C345.06 153.705 345.24 153.766 345.426 153.79C345.613 153.814 345.802 153.801 345.984 153.752C346.165 153.703 346.335 153.619 346.484 153.504C346.633 153.39 346.758 153.247 346.852 153.084C346.945 152.921 347.006 152.741 347.03 152.554C347.054 152.368 347.041 152.178 346.992 151.997C346.943 151.815 346.859 151.645 346.744 151.496C346.63 151.347 346.487 151.223 346.324 151.129H346.352Z" fill="#2E3330"/>
<path d="M297.526 176.28L302.153 204.435L243.917 169.542L270.509 159.571L297.526 176.28Z" fill="#2E3330" stroke="#181B1A" stroke-width="2"/>
<path d="M276.942 178.147L264.191 200.769L266.528 202.086L279.279 179.465L276.942 178.147Z" fill="#2E3330"/>
<path d="M262.941 197.157C264.068 196.872 265.253 196.927 266.348 197.316C267.443 197.704 268.398 198.408 269.093 199.339C269.788 200.27 270.192 201.385 270.253 202.545C270.314 203.705 270.031 204.858 269.438 205.857C268.845 206.856 267.969 207.656 266.921 208.158C265.873 208.66 264.701 208.84 263.551 208.675C262.401 208.511 261.325 208.009 260.46 207.234C259.595 206.459 258.979 205.445 258.69 204.32C258.497 203.57 258.454 202.79 258.564 202.024C258.673 201.258 258.933 200.521 259.328 199.855C259.723 199.19 260.246 198.609 260.866 198.146C261.486 197.683 262.191 197.347 262.941 197.157Z" fill="#2E3330"/>
<path d="M337.245 111.013L335.764 113.49L335.55 113.847L335.652 114.249L337.661 122.18L310.463 167.953L300.706 170.42L300.301 170.522L300.089 170.884L298.096 174.28L272.078 158.165L273.838 155.306L274.059 154.947L273.957 154.54L271.715 145.545L298.551 99.46L306.248 97.5088L306.65 97.4072L306.862 97.0498L308.635 94.0576L337.245 111.013Z" fill="#2E3330" stroke="#181B1A" stroke-width="2"/>
<path d="M378.712 198.184L398.715 164.483L348.549 134.692L329.059 167.508L328.603 168.421L378.712 198.184Z" fill="#2E3330"/>
<path d="M349.733 138.623L332.565 167.49L377.792 194.387L394.959 165.519L349.733 138.623Z" fill="#FAFBFB"/>
<path d="M361.945 186.748L364.066 187.983L382.502 156.319L380.381 155.084L361.945 186.748Z" fill="#2E3330"/>
<path d="M386.828 181.31L388.062 179.189L340.493 151.492L339.258 153.613L386.828 181.31Z" fill="#2E3330"/>
<path d="M345.911 177.299L348.032 178.534L366.462 146.867L364.341 145.632L345.911 177.299Z" fill="#2E3330"/>
<path d="M435.267 821.138C447.845 823.424 462.838 829.452 472.848 844.382C482.951 859.449 486.188 872.868 488.893 886.376C491.513 899.463 493.643 912.703 501.117 927.402L501.857 928.829L502.754 930.614L502.768 930.642L502.783 930.668C504.167 933.048 505.526 935.368 507.068 937.599C506.77 938.805 506.529 940.076 506.279 941.299C506.12 942.076 505.955 942.839 505.77 943.58L500.954 938.107C495.437 930.738 487.909 925.12 479.274 921.929L479.275 921.929C466.802 917.073 455.96 908.78 448.009 898.012C440.064 887.253 435.33 874.462 434.355 861.123C434.43 852.861 432.551 844.698 428.869 837.301C425.553 830.64 420.86 824.77 415.112 820.075C416.184 819.991 417.579 819.911 419.234 819.877C423.321 819.794 428.981 819.996 435.267 821.138Z" fill="#63A680" stroke="#181B1A" stroke-width="2"/>
<path d="M626.955 862.112C632.986 864.037 638.024 866.489 641.552 868.459C642.95 869.239 644.109 869.943 644.998 870.508C637.723 871.883 630.814 874.792 624.735 879.052C617.97 883.792 612.425 890.069 608.557 897.368C601.332 908.656 591.054 917.666 578.915 923.35C567.144 928.861 554.092 931.025 541.187 929.619L539.939 929.471C530.808 928.301 521.533 929.762 513.205 933.682L506.642 936.061L508.508 930.425C510.876 929.159 513.2 927.795 515.568 926.286L515.567 926.285L517.228 925.253L517.242 925.245L517.256 925.235C531.651 915.618 540.139 904.631 548.988 894.054C557.837 883.477 567.088 873.251 583.079 864.854C598.925 856.532 614.886 858.258 626.955 862.112Z" fill="#63A680" stroke="#181B1A" stroke-width="2"/>
<path d="M508.778 929.875L508.788 929.837C511.345 919.308 512.616 908.507 512.574 897.672L512.575 897.672L512.575 897.661L512.554 896.615C512.042 874.735 506.022 858.245 500.551 841.657C494.994 824.808 489.979 807.805 491.63 784.676C493.269 761.709 505.923 745.741 518.239 735.483C524.394 730.355 530.45 726.667 534.967 724.262C537.108 723.123 538.901 722.273 540.191 721.695C536.663 730.536 535.109 740.052 535.651 749.575C536.238 759.913 539.279 769.961 544.519 778.89C553.029 795.313 554.687 814.492 551.947 831.864C549.205 849.256 542.077 864.699 533.179 873.662C527.655 879.153 524.617 886.351 522.311 894.831C521.157 899.074 520.178 903.667 519.17 908.553C518.165 913.426 517.127 918.594 515.849 924.049C515.218 925.569 514.724 927.267 514.259 928.969C513.778 930.724 513.328 932.478 512.772 934.159L512.765 934.18L512.759 934.2C508.511 949.153 502.104 963.406 493.742 976.509C489.988 982.344 487.061 986.683 484.813 989.812C482.562 992.944 481.023 994.818 480.035 995.768C480.127 995.285 480.277 994.692 480.481 994.008C481.395 990.936 483.245 986.389 484.885 982.575C485.702 980.675 486.461 978.971 487.016 977.742C487.293 977.127 487.519 976.63 487.676 976.289C487.754 976.118 487.815 975.985 487.856 975.896C487.867 975.873 487.876 975.852 487.884 975.835C495.626 964.551 501.644 952.181 505.742 939.129L506.134 937.862L508.778 929.875Z" fill="#63A680" stroke="#181B1A" stroke-width="2"/>
<path d="M155.624 404.272C209.54 404.272 253.248 360.564 253.248 306.648C253.248 252.731 209.54 209.023 155.624 209.023C101.708 209.023 58 252.731 58 306.648C58 360.564 101.708 404.272 155.624 404.272Z" fill="#63A680" stroke="#181B1A" stroke-width="2" stroke-miterlimit="10"/>
<path d="M136.016 396.971C141.25 398.112 146.576 398.789 151.93 398.994" stroke="#181B1A" stroke-width="2" stroke-miterlimit="10"/>
<path d="M124.053 393.504C126.699 394.464 129.389 395.314 132.116 396.033" stroke="#181B1A" stroke-width="2" stroke-miterlimit="10"/>
<path d="M66.7309 281.358C60.5173 303.24 62.588 326.643 72.5467 347.094C82.5054 367.544 99.6533 383.605 120.711 392.206" stroke="#181B1A" stroke-width="2" stroke-miterlimit="10"/>
<path d="M79.155 254.771C75.8167 259.697 72.9571 264.93 70.6152 270.4" stroke="#181B1A" stroke-width="2" stroke-miterlimit="10"/>
<path d="M142.393 263.29L152.348 265.349L155.742 268.868L160.162 269.55L161.569 273.742L160.536 276.587L157.523 277.965L150.134 276.763L149.936 275.854L153.425 273.42L151.014 268.97L144.409 268.062L140.891 265.049L142.393 263.29Z" fill="#FAFBFB" stroke="#181B1A" stroke-width="2" stroke-miterlimit="10"/>
<path d="M222.6 355.13L214.706 353.796L205.176 352.586L198.169 354.14L191.308 354.243L184.417 357.431L180.4 358.568L177.908 359.117L173.759 362.885L169.639 365.7L162.676 363.208L162.859 356.53L158.659 355.797L154.136 356.801L153.014 354.946L152.56 350.775L150.478 348.862L147.407 350.02L147.004 352.483L143.214 353.561L138.918 350.248L136.353 345.117L138.339 338.028L144.995 337.024L147.157 338.211L149.877 337.603L152.809 334.818L155.946 335.067L161.576 341.173L163.108 340.601L161.503 335.47L159.546 333.051L159.04 328.653L166.605 323.177L165.872 314.557L168.804 310.811L170.592 304.947L172.755 303.987L177.204 299.442L177.028 297.58L173.458 298.613L172.381 296.95L169.889 297.507L166.223 299.266L167.382 295.923L174.858 291.906L176.215 289.473L180.488 293.746L182.98 295.33L185.912 293.717L183.904 291.078L178.399 288.747L171.648 283.843L165.139 281.255L159.509 281.556L156.188 279.445L152.369 279.342L152.12 280.347L153.124 287.002L154.532 289.07L154.099 296.759L148.777 294.142V290.821L143.529 289.619L140.941 287.581L140.817 281.673L146.322 275.472L145.589 269.938L143.148 270.722L141.117 269.036L139.651 265.796L138.017 265.921L137.921 269.74L135.495 270.751L132.607 263.084L130.547 262.351L127.08 261.698L123.862 264.308L129.338 267.599L131.097 271.264L121.568 266.969L114.56 262.116L112.771 256.098L106.489 255.592L102.619 259.536C101.669 260.444 100.671 261.301 99.6282 262.102C98.5946 262.835 94.4017 264.213 94.4017 264.213L94.3504 268.259L89.2192 269.637L90.2235 272.027L98.8952 271.528L104.246 275.318L106.005 283.235L105.075 290.799L107.186 298.13L103.308 310.591L105.617 327.399L109.766 336.452L114.311 343.049L117.807 342.749L115.872 339.377L113.46 337.068L111.225 332.34L113.16 331.438L118.13 338.878L122 345.615L123.305 351.479L128.759 355.723L137.694 359.74L150.156 360.297L154.554 362.885L158.072 365.898L162.69 367.481L167.968 367.738L172.894 366.404C172.894 366.404 173.172 368.713 173.422 369.849C173.671 370.985 171.362 375.53 171.362 375.53L169.896 380.602L172.828 385.176L178.26 386.107L186.807 391.788L190.274 392.441L191.007 395.834L191.74 397.301C208.72 390.57 223.461 379.194 234.277 364.476L234.035 362.812L237.701 350.35L234.307 348.965L222.6 355.13Z" fill="#FAFBFB" stroke="#181B1A" stroke-width="2" stroke-miterlimit="10"/>
<path d="M226.28 260.562L222.843 256.817L218.569 252.543L216.157 245.946L220.38 245.719L220.101 243.41L217.11 243.835L219.346 242.149L221.714 239.95L221.208 237.685L217.689 234.672L216.033 229.929C199.312 216.768 178.752 209.425 157.477 209.018C136.201 208.61 115.375 215.16 98.1624 227.672L104.203 230.208L101.938 234.98L97.8399 236.842L98.7489 243.05L97.0849 244.128L95.377 247.119L96.5058 251.143L100.457 250.74L99.7238 254.933L103.572 254.082L108.271 244.26L108.146 240.492L114.377 238.638L115.359 235.566L121.766 233.433L121.59 229.438L126.289 228.155C126.289 228.155 129.279 225.59 129.954 225.443C131.325 225.435 132.694 225.528 134.051 225.722L138.046 227.679L142.826 226.667L146.344 223.281L151.644 222.548C152.5 222.878 153.422 222.998 154.334 222.9C155.463 222.643 158.505 220.312 158.505 220.312L165.967 222.922L169.134 224.388L169.867 227.782L173.363 227.481L174.038 225.194L177.285 225.927L177.461 227.782L171.076 231.066L176.024 235.185L185.172 237.905L189.571 241.672L194.643 241.02L195.273 238.506L196.981 237.655L190.098 234.437L186.382 234.789L189.116 233.228L185.546 229.988L189.343 228.903L194.922 230.516L197.26 235.691L200.397 238.081L203.894 244.187L209.67 246.701L211.334 254.163L217.286 256.406L217.594 258.92V262.014L219.859 265.782L220.761 267.717L224.756 267.541L225.709 263.297L226.28 260.562Z" fill="#FAFBFB" stroke="#181B1A" stroke-width="2" stroke-miterlimit="10"/>
<path d="M224.191 237.12L224.477 238.418L224.154 242.288L225.532 245.308L228.223 245.66L229.175 249.955L226.243 249.428L228.274 261.794L226.669 267.372L229.879 273.302L233.427 275.362L236.139 287.582L241.19 296.422L245.962 302.96L251.467 303.158L252.273 298.232L252.882 297.499C252.494 293.462 251.86 289.452 250.983 285.492C246.925 267.114 237.617 250.309 224.191 237.12Z" fill="#FAFBFB" stroke="#181B1A" stroke-width="2" stroke-miterlimit="10"/>
<path d="M171.597 247.31L155.214 244.062L148.704 245.748L148.074 250.396L144.709 248.057L139.989 250.293L141.191 257.858L145.912 259.896L147.898 254.948L152.047 257.587L160.418 262.132L163.226 268.392L170.768 274.549L179.917 270.855L178.934 267.519L176.046 264.125L173.583 255.175L174.991 250.828L171.597 247.31Z" fill="#FAFBFB" stroke="#181B1A" stroke-width="2" stroke-miterlimit="10"/>
<path d="M184.916 249.574L181.324 249.42L178.934 252.565L181.976 258.766L184.916 258.114V249.574Z" fill="#FAFBFB" stroke="#181B1A" stroke-width="2" stroke-miterlimit="10"/>
<path d="M206.907 249.201L198.316 246.833L196.124 244.473L194.467 245.558L197.055 249.728L199.723 255.307L203.418 255.908L203.894 254.852L201.101 251.913L207.486 252.866L206.907 249.201Z" fill="#FAFBFB" stroke="#181B1A" stroke-width="2" stroke-miterlimit="10"/>
<path d="M158.997 345.52L158.293 346.627L165.528 347.155L168.944 349.72L173.342 349.214L174.376 346.378L168.973 346.627L158.997 345.52Z" fill="#FAFBFB" stroke="#181B1A" stroke-width="2" stroke-miterlimit="10"/>
<path d="M180.078 345.344L175.629 347.756L176.714 349.42L182.593 348.108L183.326 346.048L181.339 346.73L180.078 345.344Z" fill="#FAFBFB" stroke="#181B1A" stroke-width="2" stroke-miterlimit="10"/>
<path d="M136.487 653.54C151.091 670.623 164.13 687.507 173.563 703.601C183.168 719.986 188.977 735.453 188.977 749.407C188.977 777.248 165.52 799.879 136.488 799.879C107.457 799.879 84 777.248 84 749.407C84 735.453 89.8086 719.975 99.4131 703.583C108.846 687.485 121.885 670.6 136.487 653.54Z" fill="#BDDDC8" stroke="#181B1A" stroke-width="2"/>
<path d="M181.445 777.311C173.099 786.006 160.278 792.592 140.813 789.853C93.7932 783.22 84.387 733.077 95.6698 708.181C87.7439 722.774 83 736.667 83 749.407C83 777.836 106.941 800.879 136.488 800.879C145.34 800.938 154.07 798.819 161.91 794.709C169.749 790.599 176.458 784.624 181.445 777.311Z" fill="#91C4A6"/>
<path d="M145.414 705.048C146.475 709.326 148.806 713.207 153.457 712.554C154.96 712.326 156.342 711.6 157.384 710.493C158.426 709.385 159.066 707.961 159.203 706.447C159.407 703.652 158.61 700.875 156.953 698.614C155.467 696.243 153.401 694.29 150.951 692.938C150.197 692.545 149.349 692.372 148.502 692.438C147.655 692.503 146.843 692.806 146.16 693.311C145.572 693.873 145.111 694.553 144.805 695.306C144.5 696.06 144.358 696.869 144.388 697.682C144.444 700.169 144.788 702.641 145.414 705.048Z" fill="#FAFBFB"/>
<path d="M181.606 747.498C182.399 756.516 181.239 766.304 172.561 772.993C170.868 774.296 168.69 775.51 166.156 775.518C162.853 775.518 160.237 773.403 159.456 771.173C158.674 768.943 159.278 766.623 159.621 764.353C160.451 758.845 159.74 753.278 157.526 747.957C155.632 743.416 152.625 739.046 151.974 734.341C151.323 729.635 153.714 724.266 159.846 722.192C166.31 720.02 172.526 724.471 175.142 728.094C179.333 733.915 181.049 741.071 181.606 747.498Z" fill="#FAFBFB"/>
<path d="M136.487 653.54C151.091 670.623 164.13 687.507 173.563 703.601C183.168 719.986 188.977 735.453 188.977 749.407C188.977 777.248 165.52 799.879 136.488 799.879C107.457 799.879 84 777.248 84 749.407C84 735.453 89.8086 719.975 99.4131 703.583C108.846 687.485 121.885 670.6 136.487 653.54Z" stroke="#181B1A" stroke-width="2"/>
<path d="M218.487 769.54C225.835 778.162 232.375 786.665 237.122 794.764C242.04 803.155 244.977 811.014 244.977 818.059C244.977 832.08 233.157 843.511 218.488 843.511C203.819 843.511 192 832.08 192 818.059C192 811.014 194.936 803.149 199.854 794.755C204.601 786.654 211.141 778.151 218.487 769.54Z" fill="#BDDDC8" stroke="#181B1A" stroke-width="2"/>
<path d="M241.592 832.399C237.303 836.868 230.714 840.252 220.711 838.844C196.547 835.436 191.713 809.667 197.511 796.872C193.438 804.372 191 811.512 191 818.059C191 832.669 203.304 844.511 218.488 844.511C223.037 844.541 227.524 843.452 231.553 841.34C235.582 839.228 239.029 836.157 241.592 832.399Z" fill="#91C4A6"/>
<path d="M223.076 795.262C223.621 797.461 224.819 799.455 227.209 799.12C227.981 799.002 228.692 798.629 229.227 798.06C229.763 797.491 230.092 796.759 230.162 795.981C230.267 794.544 229.857 793.118 229.006 791.956C228.242 790.737 227.18 789.733 225.921 789.039C225.534 788.837 225.098 788.748 224.662 788.781C224.227 788.815 223.81 788.971 223.459 789.23C223.157 789.519 222.92 789.868 222.763 790.256C222.606 790.643 222.533 791.059 222.548 791.476C222.577 792.755 222.754 794.025 223.076 795.262Z" fill="#FAFBFB"/>
<path d="M241.675 817.078C242.082 821.712 241.486 826.742 237.026 830.18C236.156 830.85 235.037 831.473 233.735 831.478C232.038 831.478 230.693 830.391 230.291 829.245C229.89 828.099 230.2 826.907 230.377 825.74C230.803 822.909 230.437 820.048 229.3 817.314C228.326 814.98 226.781 812.734 226.446 810.316C226.112 807.898 227.341 805.139 230.492 804.073C233.814 802.956 237.008 805.244 238.353 807.106C240.506 810.097 241.389 813.775 241.675 817.078Z" fill="#FAFBFB"/>
<path d="M218.487 769.54C225.835 778.162 232.375 786.665 237.122 794.764C242.04 803.155 244.977 811.014 244.977 818.059C244.977 832.08 233.157 843.511 218.488 843.511C203.819 843.511 192 832.08 192 818.059C192 811.014 194.936 803.149 199.854 794.755C204.601 786.654 211.141 778.151 218.487 769.54Z" stroke="#181B1A" stroke-width="2"/>
<path d="M597.303 306.463C624.649 300.775 642.207 273.996 636.519 246.65C630.831 219.304 604.051 201.746 576.705 207.434C549.359 213.122 531.802 239.902 537.49 267.248C543.178 294.594 569.957 312.151 597.303 306.463Z" fill="#BDDDC8" stroke="#181B1A" stroke-width="2" stroke-miterlimit="10"/>
<path d="M587.008 169V193.277" stroke="#181B1A" stroke-width="2" stroke-miterlimit="10"/>
<path d="M587.008 320.722V345" stroke="#181B1A" stroke-width="2" stroke-miterlimit="10"/>
<path d="M675 257.008H650.722" stroke="#181B1A" stroke-width="2" stroke-miterlimit="10"/>
<path d="M523.277 257.008H499" stroke="#181B1A" stroke-width="2" stroke-miterlimit="10"/>
<path d="M649.231 194.769L632.068 211.948" stroke="#181B1A" stroke-width="2" stroke-miterlimit="10"/>
<path d="M541.948 302.067L524.769 319.231" stroke="#181B1A" stroke-width="2" stroke-miterlimit="10"/>
<path d="M524.769 194.769L541.948 211.948" stroke="#181B1A" stroke-width="2" stroke-miterlimit="10"/>
<path d="M632.068 302.067L649.231 319.231" stroke="#181B1A" stroke-width="2" stroke-miterlimit="10"/>
<path d="M703.78 578.065L696.56 564.167L681.885 569.846C679.629 567.333 677.036 565.144 674.179 563.343L677.264 547.823L662.336 543.103L655.946 557.502C652.579 557.327 649.204 557.603 645.91 558.321L637.121 545.193L623.224 552.413L628.885 567.098C626.375 569.353 624.184 571.939 622.372 574.785L606.861 571.719L602.141 586.646L616.468 593.074C616.29 596.439 616.572 599.812 617.305 603.1L604.159 611.899L611.379 625.796L626.064 620.135C628.322 622.646 630.915 624.835 633.769 626.639L630.685 642.159L645.63 646.869L652.003 632.48C655.367 632.654 658.74 632.372 662.029 631.643L670.846 644.779L684.725 637.569L679.064 622.884C681.571 620.622 683.759 618.03 685.568 615.179L701.078 618.245L705.798 603.318L691.408 596.945C691.58 593.572 691.301 590.191 690.58 586.891L703.78 578.065ZM662.68 611.527C659.4 613.231 655.689 613.924 652.015 613.519C648.341 613.114 644.87 611.628 642.041 609.25C639.211 606.872 637.151 603.708 636.119 600.159C635.088 596.61 635.132 592.834 636.246 589.31C637.361 585.786 639.495 582.671 642.379 580.36C645.264 578.049 648.769 576.645 652.451 576.326C656.133 576.007 659.827 576.787 663.066 578.567C666.305 580.348 668.944 583.049 670.648 586.328C672.933 590.727 673.377 595.852 671.883 600.578C670.388 605.304 667.078 609.242 662.68 611.527Z" fill="#91C4A6" stroke="#181B1A" stroke-width="2" stroke-linecap="round" stroke-linejoin="round"/>
<path d="M743.909 521.805L737.574 513.399L728.49 518.782C726.713 517.376 724.755 516.214 722.668 515.33L722.994 504.722L712.578 503.267L709.956 513.51C707.705 513.752 705.499 514.312 703.405 515.174L696.163 507.491L687.757 513.827L693.14 522.91C691.726 524.683 690.564 526.642 689.687 528.733L678.988 528.363L677.523 538.761L687.767 541.382C688.015 543.641 688.572 545.854 689.422 547.961L681.74 555.203L688.057 563.618L697.141 558.235C698.918 559.642 700.876 560.803 702.963 561.688L702.655 572.286L713.053 573.751L715.674 563.508C717.926 563.263 720.131 562.703 722.226 561.843L729.486 569.517L737.874 563.191L732.509 554.098C733.923 552.325 735.085 550.366 735.961 548.275L746.569 548.601L748.034 538.203L737.791 535.582C737.526 533.328 736.963 531.118 736.117 529.012L743.909 521.805ZM720.366 548.526C718.385 550.015 716.007 550.882 713.533 551.02C711.059 551.157 708.6 550.558 706.466 549.298C704.332 548.038 702.62 546.174 701.545 543.941C700.471 541.708 700.082 539.207 700.428 536.753C700.775 534.3 701.841 532.004 703.492 530.156C705.143 528.308 707.304 526.991 709.704 526.371C712.103 525.752 714.632 525.857 716.971 526.674C719.31 527.491 721.355 528.984 722.847 530.962C723.838 532.278 724.561 533.776 724.973 535.371C725.385 536.967 725.478 538.627 725.248 540.259C725.018 541.89 724.468 543.46 723.63 544.878C722.792 546.297 721.683 547.537 720.366 548.526Z" fill="#181B1A" stroke="#181B1A" stroke-width="2" stroke-miterlimit="10"/>
</g>
<defs>
<clipPath id="clip0_823_3138">
<rect width="768" height="1024" fill="white"/>
</clipPath>
</defs>
</svg>
