<svg width="198" height="48" viewBox="0 0 198 48" fill="none" xmlns="http://www.w3.org/2000/svg">
<g clip-path="url(#clip0_281_639)">
<mask id="mask0_281_639" style="mask-type:luminance" maskUnits="userSpaceOnUse" x="0" y="0" width="198" height="48">
<path d="M197.16 0H0.839554V48H197.16V0Z" fill="white"/>
</mask>
<g mask="url(#mask0_281_639)">
<path d="M26.1447 0.624704C26.0295 0.627509 25.915 0.644153 25.8026 0.669985L3.35312 5.82199C2.61283 5.99178 2.03833 6.70281 2.02486 7.46218L1.52174 34.0725C1.52068 34.114 1.51215 34.1549 1.49658 34.1933C0.9174 35.7037 0.721005 37.1396 0.907922 38.4597C1.17704 40.3605 2.26855 41.9445 3.69523 42.9124C6.56764 44.8612 10.7113 44.7019 13.8232 42.1879C15.1231 41.1378 16.2523 40.6112 17.2796 40.4672C18.307 40.3232 19.2158 40.57 20.0217 40.9904C21.6739 41.8525 23.0037 43.816 23.3875 45.9614C23.4668 46.4032 23.7287 46.8116 24.097 47.0683C24.4654 47.325 24.9379 47.4286 25.3799 47.3501C25.8217 47.2708 26.2302 47.0089 26.4869 46.6405C26.7434 46.2722 26.8473 45.7997 26.7685 45.3575C26.214 42.2589 24.4002 39.4093 21.6066 37.9517C18.8341 36.5051 15.0597 36.7778 11.6698 39.5163C9.69289 41.1134 7.09445 41.0702 5.62723 40.0749C4.91616 39.5924 4.44229 38.9229 4.30905 37.9817C4.2304 37.4263 4.27333 36.7321 4.5254 35.909C4.54028 35.8606 4.56556 35.8164 4.59947 35.7789C4.63337 35.7415 4.67507 35.712 4.72162 35.6926L30.7886 24.498C31.5002 24.1929 31.9443 23.362 31.7998 22.6013L27.8755 2.02339C27.7472 1.34568 27.1706 0.772035 26.4919 0.649861C26.3785 0.629552 26.2599 0.621902 26.1447 0.624704ZM20.5198 5.40441C20.5895 5.38908 20.6624 5.39582 20.7282 5.42368C20.7939 5.45153 20.8494 5.49913 20.8869 5.55987C20.9244 5.62064 20.9422 5.69155 20.9378 5.76284C20.9333 5.83413 20.9068 5.90227 20.8618 5.95785C19.5388 7.5777 17.9525 9.57625 16.0772 12.0507C16.0263 12.1191 15.9518 12.1662 15.8682 12.183C15.7845 12.1997 15.6977 12.1848 15.6244 12.1413C13.0277 10.6245 10.7967 9.45257 9.15918 8.6395C9.09582 8.60778 9.04375 8.55731 9.0101 8.49496C8.97643 8.43262 8.96279 8.3614 8.97104 8.29102C8.97929 8.22065 9.00901 8.15452 9.05618 8.10163C9.10336 8.04876 9.16567 8.01169 9.23465 7.9955L20.5198 5.40441ZM25.048 6.58172C25.1107 6.598 25.1676 6.63168 25.2121 6.67884C25.2565 6.72601 25.2869 6.78476 25.2995 6.84837L27.7194 19.5623C27.7322 19.6309 27.7239 19.7017 27.6956 19.7653C27.6674 19.8292 27.6204 19.8829 27.561 19.9193C27.5017 19.9557 27.4327 19.9735 27.363 19.97C27.2933 19.9664 27.2265 19.9419 27.171 19.8994C24.4245 17.7706 21.6914 15.8948 19.1513 14.2846C19.1111 14.2591 19.0768 14.2255 19.0503 14.1861C19.0236 14.1466 19.0057 14.1021 18.9971 14.0553C18.9886 14.0085 18.9898 13.9605 19.0009 13.9143C19.0117 13.868 19.0322 13.8245 19.0608 13.7865C21.3747 10.7452 23.3335 8.32697 24.6956 6.69241C24.7379 6.64247 24.7934 6.60554 24.8558 6.58595C24.918 6.56636 24.9847 6.56489 25.048 6.58172ZM5.87378 10.8734C7.21856 11.4983 9.94821 12.8208 13.4961 14.8732C13.5374 14.8975 13.5732 14.9301 13.6012 14.969C13.6292 15.0078 13.6488 15.0521 13.6588 15.099C13.6687 15.1458 13.6688 15.1943 13.659 15.2412C13.6492 15.288 13.6297 15.3324 13.6018 15.3713C11.1373 18.7474 8.44203 22.642 5.72787 26.9029C5.68819 26.968 5.6281 27.0181 5.55696 27.0453C5.48581 27.0727 5.40764 27.0756 5.33467 27.0537C5.26167 27.0318 5.19795 26.9865 5.15349 26.9246C5.10903 26.8628 5.08633 26.7879 5.08889 26.7118L5.38071 11.1803C5.38144 11.1224 5.39671 11.0657 5.42512 11.0153C5.45353 10.9649 5.49417 10.9225 5.54327 10.8919C5.59239 10.8614 5.64839 10.8436 5.70615 10.8404C5.76391 10.8372 5.82155 10.8485 5.87378 10.8734ZM16.7916 16.9713C16.8781 16.9536 16.9682 16.9698 17.0432 17.0165C19.5895 18.6197 22.3401 20.4987 25.1082 22.6466C25.1555 22.6834 25.1923 22.7317 25.2151 22.7872C25.238 22.8425 25.246 22.9029 25.2384 22.9623C25.2307 23.0217 25.2078 23.0782 25.1717 23.1261C25.1356 23.1739 25.0878 23.2114 25.0329 23.2352L8.30387 30.4197C8.23659 30.4482 8.16206 30.4544 8.091 30.4377C8.01996 30.4208 7.95605 30.3821 7.90851 30.3266C7.86096 30.2713 7.83221 30.2021 7.8264 30.1294C7.8206 30.0567 7.83804 29.984 7.87621 29.9218C10.8722 25.1449 13.8768 20.7988 16.5803 17.1071C16.6311 17.0369 16.7066 16.9884 16.7916 16.9713Z" fill="#FAFBFB"/>
<path d="M55.0519 37.504C52.8048 37.504 50.7994 36.992 49.0359 35.968C47.2723 34.9156 45.8786 33.5076 44.8546 31.744C43.859 29.952 43.3612 27.9325 43.3612 25.6854C43.3612 23.3814 43.8448 21.3334 44.8119 19.5414C45.8074 17.7494 47.1586 16.3556 48.8652 15.36C50.5719 14.336 52.5488 13.824 54.7959 13.824C56.4741 13.824 58.0243 14.1511 59.4466 14.8054C60.8688 15.4596 62.1346 16.4409 63.2439 17.7494C63.6137 18.1476 63.7417 18.5742 63.6279 19.0294C63.5426 19.4845 63.2581 19.8827 62.7746 20.224C62.4332 20.48 62.035 20.5654 61.5799 20.48C61.1248 20.3947 60.7266 20.1529 60.3852 19.7547C58.8777 18.1334 57.0146 17.3227 54.7959 17.3227C53.2883 17.3227 51.9514 17.6782 50.7852 18.3894C49.6474 19.1005 48.7515 20.0818 48.0972 21.3334C47.4714 22.5565 47.1586 24.0071 47.1586 25.6854C47.1586 27.2782 47.4857 28.7005 48.1399 29.952C48.8226 31.2036 49.7612 32.1991 50.9559 32.9387C52.1506 33.6498 53.5159 34.0054 55.0519 34.0054C56.1043 34.0054 57.043 33.8774 57.8679 33.6214C58.6928 33.3654 59.4323 32.9529 60.0866 32.384C60.4848 32.0427 60.8972 31.8578 61.3239 31.8294C61.779 31.8009 62.1772 31.9289 62.5186 32.2134C62.9452 32.5831 63.187 32.9956 63.2439 33.4507C63.3008 33.9058 63.1443 34.304 62.7746 34.6454C60.7266 36.5511 58.1523 37.504 55.0519 37.504ZM80.0389 37.504C77.9056 37.504 75.9998 36.992 74.3216 35.968C72.6434 34.944 71.3207 33.536 70.3536 31.744C69.3865 29.952 68.9029 27.9325 68.9029 25.6854C68.9029 23.4098 69.4149 21.3902 70.4389 19.6267C71.4914 17.8347 72.8994 16.4267 74.6629 15.4027C76.4549 14.3502 78.4603 13.824 80.6789 13.824C82.926 13.824 84.9314 14.3502 86.6949 15.4027C88.4585 16.4267 89.8522 17.8347 90.8763 19.6267C91.9287 21.4187 92.4691 23.4382 92.4976 25.6854L90.9616 26.0694C90.9616 28.2311 90.478 30.1796 89.5109 31.9147C88.5438 33.6498 87.2354 35.0151 85.5856 36.0107C83.9642 37.0063 82.1154 37.504 80.0389 37.504ZM80.6789 34.0054C82.2149 34.0054 83.5802 33.6498 84.7749 32.9387C85.9696 32.1991 86.9083 31.2036 87.5909 29.952C88.302 28.672 88.6576 27.2498 88.6576 25.6854C88.6576 24.0925 88.302 22.6702 87.5909 21.4187C86.9083 20.1387 85.9696 19.1431 84.7749 18.432C83.5802 17.6925 82.2149 17.3227 80.6789 17.3227C79.1998 17.3227 77.8487 17.6925 76.6256 18.432C75.4025 19.1431 74.4354 20.1387 73.7242 21.4187C73.0416 22.6702 72.7003 24.0925 72.7003 25.6854C72.7003 27.2498 73.0416 28.672 73.7242 29.952C74.4354 31.2036 75.4025 32.1991 76.6256 32.9387C77.8487 33.6498 79.1998 34.0054 80.6789 34.0054ZM90.4923 37.376C89.9234 37.376 89.454 37.1911 89.0843 36.8214C88.7145 36.4516 88.5296 35.9823 88.5296 35.4134V28.5867L89.3402 24.4907L92.4976 25.6854V35.4134C92.4976 35.9823 92.2985 36.4516 91.9002 36.8214C91.5305 37.1911 91.0611 37.376 90.4923 37.376ZM118.771 37.376C118.202 37.376 117.719 37.1911 117.32 36.8214C116.951 36.4231 116.766 35.9538 116.766 35.4134V24.6614C116.766 22.9831 116.453 21.6178 115.827 20.5654C115.201 19.4845 114.362 18.688 113.31 18.176C112.257 17.6356 111.048 17.3654 109.683 17.3654C108.403 17.3654 107.251 17.6214 106.227 18.1334C105.203 18.6454 104.378 19.328 103.752 20.1814C103.155 21.0347 102.856 22.016 102.856 23.1254H100.296C100.325 21.3334 100.78 19.7405 101.662 18.3467C102.543 16.9245 103.738 15.8151 105.246 15.0187C106.753 14.1938 108.446 13.7814 110.323 13.7814C112.314 13.7814 114.092 14.208 115.656 15.0614C117.221 15.8862 118.458 17.1094 119.368 18.7307C120.279 20.352 120.734 22.3289 120.734 24.6614V35.4134C120.734 35.9538 120.535 36.4231 120.136 36.8214C119.767 37.1911 119.311 37.376 118.771 37.376ZM100.894 37.376C100.325 37.376 99.8554 37.1911 99.4857 36.8214C99.1159 36.4516 98.931 35.9823 98.931 35.4134V15.9574C98.931 15.36 99.1159 14.8907 99.4857 14.5494C99.8554 14.1796 100.325 13.9947 100.894 13.9947C101.491 13.9947 101.96 14.1796 102.302 14.5494C102.671 14.8907 102.856 15.36 102.856 15.9574V35.4134C102.856 35.9823 102.671 36.4516 102.302 36.8214C101.96 37.1911 101.491 37.376 100.894 37.376ZM138.512 37.504C136.237 37.504 134.203 37.0063 132.411 36.0107C130.647 34.9867 129.254 33.5929 128.23 31.8294C127.234 30.0374 126.736 27.9894 126.736 25.6854C126.736 23.3529 127.234 21.3049 128.23 19.5414C129.254 17.7494 130.647 16.3556 132.411 15.36C134.203 14.336 136.237 13.824 138.512 13.824C140.788 13.824 142.807 14.336 144.571 15.36C146.363 16.3556 147.757 17.7494 148.752 19.5414C149.776 21.3049 150.303 23.3529 150.331 25.6854C150.331 27.9894 149.819 30.0374 148.795 31.8294C147.771 33.5929 146.377 34.9867 144.614 36.0107C142.85 37.0063 140.816 37.504 138.512 37.504ZM138.512 34.0054C140.077 34.0054 141.456 33.6498 142.651 32.9387C143.846 32.2276 144.784 31.2462 145.467 29.9947C146.15 28.7431 146.491 27.3067 146.491 25.6854C146.491 24.064 146.15 22.6276 145.467 21.376C144.784 20.096 143.846 19.1005 142.651 18.3894C141.456 17.6782 140.077 17.3227 138.512 17.3227C136.976 17.3227 135.597 17.6782 134.374 18.3894C133.179 19.1005 132.24 20.096 131.558 21.376C130.875 22.6276 130.534 24.064 130.534 25.6854C130.534 27.3067 130.875 28.7431 131.558 29.9947C132.24 31.2462 133.179 32.2276 134.374 32.9387C135.597 33.6498 136.976 34.0054 138.512 34.0054ZM158.727 47.3174C158.158 47.3174 157.689 47.1325 157.319 46.7627C156.949 46.3929 156.764 45.9236 156.764 45.3547V25.6C156.793 23.3814 157.319 21.376 158.343 19.584C159.395 17.792 160.803 16.384 162.567 15.36C164.33 14.336 166.322 13.824 168.54 13.824C170.787 13.824 172.793 14.3502 174.556 15.4027C176.348 16.4267 177.756 17.8347 178.78 19.6267C179.832 21.3902 180.358 23.4098 180.358 25.6854C180.358 27.9325 179.86 29.952 178.865 31.744C177.898 33.536 176.576 34.944 174.898 35.968C173.219 36.992 171.328 37.504 169.223 37.504C167.431 37.504 165.81 37.1343 164.359 36.3947C162.908 35.6551 161.685 34.6596 160.69 33.408V45.3547C160.69 45.9236 160.505 46.3929 160.135 46.7627C159.794 47.1325 159.324 47.3174 158.727 47.3174ZM168.54 34.0054C170.048 34.0054 171.399 33.6498 172.594 32.9387C173.817 32.1991 174.77 31.2036 175.452 29.952C176.163 28.672 176.519 27.2498 176.519 25.6854C176.519 24.0925 176.163 22.6702 175.452 21.4187C174.77 20.1387 173.817 19.1431 172.594 18.432C171.399 17.6925 170.048 17.3227 168.54 17.3227C167.033 17.3227 165.667 17.6925 164.444 18.432C163.25 19.1716 162.311 20.1671 161.628 21.4187C160.946 22.6702 160.604 24.0925 160.604 25.6854C160.604 27.2498 160.946 28.672 161.628 29.952C162.311 31.2036 163.25 32.1991 164.444 32.9387C165.667 33.6498 167.033 34.0054 168.54 34.0054ZM189.364 37.3334C188.767 37.3334 188.284 37.1485 187.914 36.7787C187.544 36.4089 187.359 35.9396 187.359 35.3707V15.9574C187.359 15.36 187.544 14.8907 187.914 14.5494C188.284 14.1796 188.767 13.9947 189.364 13.9947C189.933 13.9947 190.403 14.1796 190.772 14.5494C191.142 14.8907 191.327 15.36 191.327 15.9574V35.3707C191.327 35.9396 191.142 36.4089 190.772 36.7787C190.403 37.1485 189.933 37.3334 189.364 37.3334ZM189.322 9.94136C188.611 9.94136 187.999 9.68536 187.487 9.17336C186.975 8.66136 186.719 8.03558 186.719 7.29603C186.719 6.55647 186.975 5.94491 187.487 5.46136C188.028 4.94936 188.653 4.69336 189.364 4.69336C190.047 4.69336 190.644 4.94936 191.156 5.46136C191.697 5.94491 191.967 6.55647 191.967 7.29603C191.967 8.03558 191.711 8.66136 191.199 9.17336C190.687 9.68536 190.061 9.94136 189.322 9.94136Z" fill="#FAFBFB"/>
</g>
</g>
<defs>
<clipPath id="clip0_281_639">
<rect width="197.333" height="48" fill="white" transform="translate(0.333313)"/>
</clipPath>
</defs>
</svg>
