<svg width="32" height="32" viewBox="0 0 32 32" fill="none" xmlns="http://www.w3.org/2000/svg">
<path d="M0 8C0 3.58172 3.58172 0 8 0H24C28.4183 0 32 3.58172 32 8V24C32 28.4183 28.4183 32 24 32H8C3.58172 32 0 28.4183 0 24V8Z" fill="#63A680"/>
<path d="M21.0367 4.00029C20.9775 4.00173 20.9188 4.01027 20.8611 4.02353L9.3366 6.66832C8.95658 6.75548 8.66166 7.12048 8.65474 7.51031L8.39646 21.1708C8.39592 21.192 8.39154 21.213 8.38355 21.2327C8.08623 22.0081 7.98541 22.7452 8.08136 23.423C8.21951 24.3987 8.77984 25.2119 9.51223 25.7087C10.9868 26.7091 13.1139 26.6274 14.7114 25.3368C15.3787 24.7977 15.9584 24.5274 16.4858 24.4535C17.0132 24.3796 17.4797 24.5063 17.8934 24.7221C18.7416 25.1646 19.4243 26.1726 19.6213 27.2739C19.662 27.5008 19.7964 27.7104 19.9855 27.8421C20.1746 27.9739 20.4172 28.0272 20.6441 27.9868C20.8709 27.9461 21.0806 27.8116 21.2123 27.6226C21.3441 27.4335 21.3974 27.1909 21.357 26.964C21.0723 25.3732 20.1411 23.9103 18.707 23.1621C17.2838 22.4195 15.3462 22.5595 13.606 23.9653C12.5911 24.7852 11.2572 24.763 10.504 24.252C10.139 24.0044 9.89573 23.6607 9.82734 23.1776C9.78696 22.8924 9.809 22.5361 9.9384 22.1135C9.94603 22.0887 9.95902 22.0659 9.97642 22.0468C9.99383 22.0276 10.0152 22.0124 10.0391 22.0024L23.4206 16.2557C23.7859 16.099 24.0139 15.6725 23.9398 15.282L21.9252 4.71831C21.8593 4.3704 21.5634 4.07592 21.2149 4.0132C21.1567 4.00278 21.0958 3.99885 21.0367 4.00029ZM18.1491 6.45395C18.1849 6.44609 18.2223 6.44955 18.2561 6.46385C18.2898 6.47814 18.3183 6.50258 18.3376 6.53377C18.3569 6.56495 18.366 6.60136 18.3637 6.63796C18.3614 6.67456 18.3478 6.70953 18.3248 6.73806C17.6456 7.56962 16.8312 8.59557 15.8685 9.86583C15.8424 9.90096 15.8041 9.92515 15.7612 9.93374C15.7183 9.94232 15.6737 9.93469 15.6361 9.91232C14.3031 9.1337 13.1578 8.53208 12.3172 8.11469C12.2846 8.09841 12.2579 8.0725 12.2406 8.0405C12.2233 8.00849 12.2163 7.97193 12.2206 7.9358C12.2248 7.89967 12.2401 7.86573 12.2643 7.83858C12.2885 7.81143 12.3205 7.79241 12.3559 7.78409L18.1491 6.45395ZM20.4736 7.05832C20.5059 7.06669 20.5351 7.08397 20.5579 7.10818C20.5808 7.1324 20.5963 7.16256 20.6028 7.19521L21.8451 13.722C21.8517 13.7571 21.8474 13.7935 21.8329 13.8262C21.8184 13.8589 21.7943 13.8865 21.7638 13.9052C21.7333 13.9239 21.6979 13.933 21.6621 13.9312C21.6264 13.9294 21.592 13.9167 21.5636 13.895C20.1536 12.8022 18.7505 11.8392 17.4466 11.0126C17.426 10.9995 17.4083 10.9823 17.3947 10.962C17.3811 10.9418 17.3718 10.9189 17.3675 10.8949C17.3631 10.8709 17.3637 10.8462 17.3694 10.8225C17.375 10.7987 17.3854 10.7764 17.4001 10.7569C18.588 9.19564 19.5936 7.95425 20.2928 7.11515C20.3145 7.08951 20.343 7.07056 20.375 7.0605C20.407 7.05044 20.4412 7.04969 20.4736 7.05832ZM10.6306 9.26145C11.3209 9.58226 12.7222 10.2611 14.5435 11.3148C14.5647 11.3272 14.5831 11.344 14.5975 11.3639C14.6119 11.3839 14.6219 11.4066 14.627 11.4307C14.6321 11.4547 14.6322 11.4796 14.6271 11.5037C14.6221 11.5277 14.6121 11.5505 14.5978 11.5705C13.3326 13.3036 11.949 15.3029 10.5557 17.4903C10.5353 17.5237 10.5045 17.5494 10.468 17.5634C10.4314 17.5774 10.3913 17.5789 10.3538 17.5677C10.3164 17.5565 10.2837 17.5332 10.2608 17.5014C10.238 17.4696 10.2263 17.4312 10.2277 17.3921L10.3775 9.419C10.3778 9.38931 10.3857 9.36019 10.4003 9.33432C10.4149 9.30845 10.4357 9.28667 10.4609 9.27098C10.4861 9.25529 10.5149 9.24619 10.5445 9.24452C10.5742 9.24286 10.6038 9.24868 10.6306 9.26145ZM16.2353 12.3918C16.2797 12.3827 16.3259 12.3911 16.3644 12.4151C17.6716 13.238 19.0836 14.2026 20.5046 15.3052C20.5289 15.3241 20.5478 15.349 20.5595 15.3774C20.5712 15.4059 20.5753 15.4369 20.5714 15.4674C20.5675 15.4979 20.5557 15.5268 20.5372 15.5514C20.5187 15.5759 20.4941 15.5952 20.4659 15.6074L11.8781 19.2956C11.8435 19.3102 11.8053 19.3134 11.7688 19.3048C11.7323 19.2962 11.6995 19.2762 11.6751 19.2478C11.6507 19.2194 11.636 19.1839 11.633 19.1466C11.63 19.1092 11.6389 19.0719 11.6585 19.0399C13.1965 16.5877 14.739 14.3567 16.1268 12.4615C16.1529 12.4255 16.1916 12.4006 16.2353 12.3918Z" fill="#FAFBFB"/>
</svg>
