<svg width="768" height="1024" viewBox="0 0 768 1024" fill="none" xmlns="http://www.w3.org/2000/svg">
<path d="M745.709 501.701C737.663 560.657 706.535 629.194 644.39 660.692C550.486 708.28 558.343 781.47 375.047 813.282C348.318 818.051 321.07 820.293 293.781 819.969C280.43 819.771 267.108 818.832 253.897 817.158C137.4 802.392 59.0047 732.354 30.2435 647.795C-7.60526 536.597 67.966 463.775 118.073 419.94C168.181 376.105 204.846 239.399 384.703 206.892C412.149 201.855 440.174 199.565 468.226 200.068C532.248 201.433 602.061 219.611 650.37 257.564C653.998 260.421 657.527 263.373 660.956 266.421C728.15 325.937 756.69 421.318 745.709 501.701Z" fill="#DDEEE2"/>
<path d="M442.304 520.834H287.288C283.181 520.834 279.851 524.164 279.851 528.272V662.745C279.851 666.852 283.181 670.182 287.288 670.182H442.304C446.412 670.182 449.742 666.852 449.742 662.745V528.272C449.742 524.164 446.412 520.834 442.304 520.834Z" fill="#FAFBFB"/>
<path d="M442.305 671.05H287.289C285.092 671.046 282.986 670.171 281.433 668.618C279.879 667.064 279.004 664.959 279 662.762V528.306C279 526.106 279.873 523.996 281.427 522.439C282.981 520.882 285.089 520.005 287.289 520H442.305C444.504 520.005 446.613 520.882 448.167 522.439C449.72 523.996 450.593 526.106 450.593 528.306V662.762C450.589 664.959 449.714 667.064 448.161 668.618C446.607 670.171 444.501 671.046 442.305 671.05ZM287.289 521.685C285.54 521.689 283.865 522.387 282.63 523.625C281.395 524.863 280.702 526.54 280.702 528.289V662.745C280.706 664.49 281.402 666.163 282.636 667.397C283.87 668.631 285.543 669.327 287.289 669.331H442.305C444.05 669.327 445.723 668.631 446.957 667.397C448.191 666.163 448.887 664.49 448.891 662.745V528.289C448.891 526.54 448.198 524.863 446.963 523.625C445.728 522.387 444.053 521.689 442.305 521.685H287.289Z" fill="#181B1A"/>
<path d="M298.335 641.93H296.633V647.699H298.335V641.93Z" fill="#181B1A"/>
<path d="M312.171 641.93H310.469V647.699H312.171V641.93Z" fill="#181B1A"/>
<path d="M326.009 641.93H324.307V647.699H326.009V641.93Z" fill="#181B1A"/>
<path d="M339.846 641.93H338.144V647.699H339.846V641.93Z" fill="#181B1A"/>
<path d="M353.683 641.93H351.981V647.699H353.683V641.93Z" fill="#181B1A"/>
<path d="M367.52 641.93H365.818V647.699H367.52V641.93Z" fill="#181B1A"/>
<path d="M381.357 641.93H379.655V647.699H381.357V641.93Z" fill="#181B1A"/>
<path d="M395.194 641.93H393.492V647.699H395.194V641.93Z" fill="#181B1A"/>
<path d="M409.031 641.93H407.329V647.699H409.031V641.93Z" fill="#181B1A"/>
<path d="M422.868 641.93H421.166V647.699H422.868V641.93Z" fill="#181B1A"/>
<path d="M436.705 641.93H435.003V647.699H436.705V641.93Z" fill="#181B1A"/>
<path d="M430.084 561.205L415.09 569.289L402.989 545.07L387.416 565.239L373.579 553.137L360.32 538.143L346.483 554.295L332.646 593.491L317.652 579.076L302.675 590.036V626.356H430.084V561.205Z" fill="#91C4A6"/>
<path d="M430.084 627.208H302.674C302.449 627.208 302.232 627.118 302.073 626.958C301.913 626.799 301.823 626.582 301.823 626.357V590.036C301.821 589.904 301.85 589.773 301.91 589.654C301.969 589.535 302.056 589.433 302.164 589.356L317.158 578.395C317.313 578.271 317.505 578.203 317.703 578.203C317.901 578.203 318.093 578.271 318.247 578.395L332.289 591.892L345.683 553.938C345.718 553.838 345.769 553.746 345.837 553.665L359.674 537.531C359.751 537.434 359.85 537.356 359.962 537.303C360.074 537.25 360.196 537.223 360.32 537.224C360.442 537.225 360.563 537.252 360.674 537.301C360.785 537.351 360.885 537.423 360.967 537.514L374.225 552.508L387.297 563.945L402.308 544.475C402.398 544.361 402.516 544.272 402.65 544.215C402.784 544.159 402.929 544.137 403.074 544.151C403.214 544.165 403.349 544.215 403.465 544.295C403.581 544.376 403.675 544.484 403.738 544.611L415.464 568.047L429.676 560.388C429.803 560.316 429.947 560.279 430.093 560.279C430.239 560.279 430.382 560.316 430.51 560.388C430.638 560.462 430.745 560.569 430.82 560.697C430.895 560.826 430.934 560.971 430.935 561.12V626.357C430.935 626.582 430.846 626.799 430.686 626.958C430.526 627.118 430.31 627.208 430.084 627.208ZM303.525 625.506H429.233V562.635L415.498 570.038C415.285 570.123 415.048 570.123 414.835 570.038C414.725 570.005 414.624 569.951 414.536 569.877C414.448 569.804 414.376 569.714 414.324 569.613L402.836 546.602L388.131 565.766C388.059 565.859 387.97 565.936 387.867 565.991C387.764 566.047 387.651 566.08 387.535 566.09C387.419 566.103 387.301 566.091 387.19 566.056C387.078 566.021 386.976 565.963 386.888 565.885L373.051 553.784L360.371 539.437L347.266 554.755L333.48 593.9C333.435 594.034 333.357 594.154 333.253 594.249C333.148 594.344 333.022 594.412 332.884 594.445C332.743 594.477 332.596 594.474 332.456 594.436C332.317 594.397 332.189 594.324 332.085 594.223L317.618 580.301L303.559 590.513L303.525 625.506Z" fill="#181B1A"/>
<path d="M318.69 536.969H303.015V538.671H318.69V536.969Z" fill="#181B1A"/>
<path d="M318.69 543.504H303.015V545.206H318.69V543.504Z" fill="#181B1A"/>
<path d="M318.69 550.023H303.015V551.725H318.69V550.023Z" fill="#181B1A"/>
<path d="M430.084 593.134L415.09 598.683L402.989 571.757L387.416 590.615L373.579 586.003L360.32 614.817L346.483 576.199L332.646 614.817L317.652 600.419L302.675 619.447V633.267H430.084V593.134Z" fill="#181B1A"/>
<path d="M430.084 634.117H302.674C302.449 634.117 302.232 634.028 302.073 633.868C301.913 633.709 301.823 633.492 301.823 633.266V619.429C301.82 619.239 301.88 619.054 301.994 618.902L316.988 599.891C317.063 599.798 317.156 599.722 317.261 599.667C317.367 599.611 317.482 599.577 317.601 599.567C317.839 599.558 318.072 599.644 318.247 599.806L332.289 613.302L345.683 575.859C345.743 575.694 345.851 575.552 345.995 575.452C346.138 575.351 346.308 575.297 346.483 575.297C346.658 575.297 346.829 575.351 346.972 575.452C347.115 575.552 347.224 575.694 347.283 575.859L360.422 612.519L372.813 585.645C372.899 585.454 373.053 585.302 373.244 585.217C373.436 585.132 373.652 585.121 373.851 585.186L387.126 589.611L402.325 571.212C402.417 571.101 402.535 571.015 402.669 570.962C402.803 570.91 402.949 570.892 403.092 570.911C403.235 570.929 403.37 570.984 403.486 571.069C403.602 571.155 403.695 571.269 403.755 571.4L415.549 597.61L429.778 592.334C429.906 592.282 430.046 592.264 430.183 592.282C430.32 592.3 430.45 592.353 430.561 592.436C430.677 592.511 430.773 592.614 430.838 592.737C430.904 592.859 430.937 592.995 430.935 593.134V633.266C430.935 633.378 430.913 633.489 430.871 633.592C430.828 633.695 430.765 633.789 430.686 633.868C430.607 633.947 430.513 634.01 430.41 634.053C430.307 634.095 430.196 634.117 430.084 634.117ZM303.525 632.415H429.233V594.359L415.379 599.465C415.177 599.537 414.956 599.531 414.758 599.449C414.56 599.368 414.4 599.216 414.307 599.023L402.768 573.323L388.131 591.16C388.019 591.292 387.87 591.388 387.703 591.434C387.535 591.479 387.358 591.473 387.195 591.415L374.089 587.041L361.137 615.174C361.071 615.329 360.959 615.459 360.815 615.548C360.672 615.636 360.505 615.678 360.337 615.668C360.168 615.663 360.003 615.607 359.867 615.507C359.73 615.406 359.627 615.267 359.571 615.106L346.483 578.701L333.446 615.089C333.401 615.223 333.323 615.343 333.219 615.438C333.114 615.534 332.988 615.601 332.85 615.634C332.709 615.667 332.562 615.664 332.422 615.625C332.283 615.586 332.155 615.513 332.051 615.413L317.754 601.661L303.525 619.719V632.415Z" fill="#181B1A"/>
<path d="M372.304 360.834H217.288C213.181 360.834 209.851 364.164 209.851 368.272V502.745C209.851 506.852 213.181 510.182 217.288 510.182H372.304C376.412 510.182 379.742 506.852 379.742 502.745V368.272C379.742 364.164 376.412 360.834 372.304 360.834Z" fill="#FAFBFB"/>
<path d="M372.305 511.05H217.289C215.092 511.046 212.986 510.171 211.433 508.618C209.879 507.064 209.004 504.959 209 502.762V368.306C209 366.106 209.873 363.996 211.427 362.439C212.981 360.882 215.089 360.005 217.289 360H372.305C374.504 360.005 376.613 360.882 378.166 362.439C379.72 363.996 380.593 366.106 380.593 368.306V502.762C380.589 504.959 379.714 507.064 378.161 508.618C376.607 510.171 374.501 511.046 372.305 511.05ZM217.289 361.685C215.54 361.689 213.865 362.387 212.63 363.625C211.395 364.863 210.702 366.54 210.702 368.289V502.745C210.706 504.49 211.402 506.163 212.636 507.397C213.87 508.631 215.543 509.327 217.289 509.331H372.305C374.05 509.327 375.723 508.631 376.957 507.397C378.191 506.163 378.887 504.49 378.891 502.745V368.289C378.891 366.54 378.198 364.863 376.963 363.625C375.728 362.387 374.053 361.689 372.305 361.685H217.289Z" fill="#181B1A"/>
<path d="M247.158 420.641H231.483V493.094H247.158V420.641Z" fill="#181B1A"/>
<path d="M247.141 493.963H231.483C231.257 493.963 231.041 493.873 230.881 493.713C230.722 493.554 230.632 493.337 230.632 493.112V420.642C230.632 420.416 230.722 420.199 230.881 420.04C231.041 419.88 231.257 419.791 231.483 419.791H247.141C247.367 419.791 247.583 419.88 247.743 420.04C247.903 420.199 247.992 420.416 247.992 420.642V493.112C247.992 493.337 247.903 493.554 247.743 493.713C247.583 493.873 247.367 493.963 247.141 493.963ZM232.334 492.261H246.29V421.493H232.334V492.261Z" fill="#181B1A"/>
<path d="M269.352 432.385H253.677V493.094H269.352V432.385Z" fill="#91C4A6"/>
<path d="M269.335 493.963H253.762C253.536 493.963 253.32 493.873 253.16 493.713C253.001 493.554 252.911 493.337 252.911 493.112V432.368C252.911 432.142 253.001 431.926 253.16 431.766C253.32 431.607 253.536 431.517 253.762 431.517H269.42C269.646 431.517 269.862 431.607 270.022 431.766C270.181 431.926 270.271 432.142 270.271 432.368V493.078C270.277 493.2 270.256 493.322 270.21 493.435C270.164 493.548 270.094 493.65 270.006 493.734C269.917 493.818 269.811 493.882 269.695 493.922C269.579 493.961 269.457 493.975 269.335 493.963ZM254.528 492.261H268.484V433.253H254.528V492.261Z" fill="#181B1A"/>
<path d="M291.546 442.188H275.871V493.112H291.546V442.188Z" fill="#FAFBFB"/>
<path d="M291.529 493.962H275.888C275.662 493.962 275.445 493.873 275.286 493.713C275.126 493.554 275.037 493.337 275.037 493.111V442.188C275.037 441.963 275.126 441.746 275.286 441.587C275.445 441.427 275.662 441.337 275.888 441.337H291.546C291.771 441.337 291.988 441.427 292.148 441.587C292.307 441.746 292.397 441.963 292.397 442.188V493.111C292.397 493.225 292.374 493.337 292.33 493.441C292.287 493.546 292.222 493.64 292.142 493.719C292.061 493.799 291.965 493.861 291.86 493.903C291.754 493.944 291.642 493.965 291.529 493.962ZM276.722 492.261H290.678V443.039H276.722V492.261Z" fill="#181B1A"/>
<path d="M313.739 412.148H298.064V493.094H313.739V412.148Z" fill="#181B1A"/>
<path d="M313.723 493.962H298.013C297.788 493.962 297.571 493.873 297.412 493.713C297.252 493.553 297.162 493.337 297.162 493.111V412.148C297.162 411.923 297.252 411.706 297.412 411.547C297.571 411.387 297.788 411.297 298.013 411.297H313.672C313.897 411.297 314.114 411.387 314.273 411.547C314.433 411.706 314.523 411.923 314.523 412.148V493.111C314.523 493.328 314.44 493.538 314.292 493.696C314.143 493.854 313.939 493.949 313.723 493.962ZM298.915 492.26H312.872V412.999H298.915V492.26Z" fill="#181B1A"/>
<path d="M335.933 421.952H320.258V493.112H335.933V421.952Z" fill="#91C4A6"/>
<path d="M335.916 493.963H320.258C320.033 493.963 319.816 493.873 319.656 493.713C319.497 493.554 319.407 493.337 319.407 493.112V421.952C319.407 421.726 319.497 421.51 319.656 421.35C319.816 421.191 320.033 421.101 320.258 421.101H335.916C336.142 421.101 336.359 421.191 336.518 421.35C336.678 421.51 336.767 421.726 336.767 421.952V493.112C336.767 493.337 336.678 493.554 336.518 493.713C336.359 493.873 336.142 493.963 335.916 493.963ZM321.109 492.261H335.065V422.803H321.109V492.261Z" fill="#181B1A"/>
<path d="M358.127 387.998H342.452V493.095H358.127V387.998Z" fill="#FAFBFB"/>
<path d="M358.127 493.962H342.452C342.226 493.962 342.01 493.873 341.85 493.713C341.69 493.554 341.601 493.337 341.601 493.112V387.997C341.601 387.772 341.69 387.555 341.85 387.396C342.01 387.236 342.226 387.146 342.452 387.146H358.127C358.351 387.151 358.565 387.242 358.724 387.401C358.883 387.559 358.974 387.773 358.978 387.997V493.112C358.974 493.336 358.883 493.55 358.724 493.708C358.565 493.867 358.351 493.958 358.127 493.962ZM343.303 492.261H357.276V388.848H343.303V492.261Z" fill="#181B1A"/>
<path d="M248.214 379.607H232.538V381.309H248.214V379.607Z" fill="#181B1A"/>
<path d="M248.214 386.125H232.538V387.827H248.214V386.125Z" fill="#181B1A"/>
<path d="M248.214 392.661H232.538V394.363H248.214V392.661Z" fill="#181B1A"/>
<path d="M316.735 379.607H253.422V381.309H316.735V379.607Z" fill="#181B1A"/>
<path d="M316.735 386.125H253.422V387.827H316.735V386.125Z" fill="#181B1A"/>
<path d="M316.735 392.661H253.422V394.363H316.735V392.661Z" fill="#181B1A"/>
<path d="M596.487 597.54C611.091 614.623 624.13 631.507 633.563 647.601C643.168 663.986 648.977 679.453 648.977 693.407C648.977 721.248 625.52 743.879 596.488 743.879C567.457 743.879 544 721.248 544 693.407C544 679.453 549.809 663.975 559.413 647.583C568.846 631.485 581.885 614.6 596.487 597.54Z" fill="#BDDDC8" stroke="#181B1A" stroke-width="2"/>
<path d="M641.444 721.311C633.099 730.006 620.277 736.592 600.812 733.853C553.793 727.22 544.387 677.077 555.67 652.181C547.744 666.774 543 680.667 543 693.407C543 721.836 566.941 744.879 596.488 744.879C605.34 744.938 614.07 742.819 621.909 738.709C629.749 734.599 636.458 728.624 641.444 721.311Z" fill="#91C4A6"/>
<path d="M605.414 649.048C606.475 653.326 608.806 657.207 613.457 656.554C614.96 656.326 616.342 655.6 617.384 654.493C618.426 653.385 619.066 651.961 619.203 650.447C619.407 647.652 618.61 644.875 616.953 642.614C615.467 640.243 613.401 638.29 610.951 636.938C610.197 636.545 609.349 636.372 608.502 636.438C607.655 636.503 606.843 636.806 606.16 637.311C605.572 637.873 605.111 638.553 604.805 639.306C604.5 640.06 604.358 640.869 604.388 641.682C604.444 644.169 604.788 646.641 605.414 649.048Z" fill="#FAFBFB"/>
<path d="M641.606 691.498C642.399 700.516 641.239 710.304 632.561 716.993C630.868 718.296 628.69 719.51 626.157 719.518C622.854 719.518 620.237 717.403 619.456 715.173C618.675 712.943 619.278 710.623 619.622 708.353C620.451 702.845 619.74 697.278 617.526 691.957C615.632 687.416 612.625 683.046 611.974 678.341C611.323 673.635 613.714 668.266 619.847 666.192C626.311 664.02 632.526 668.471 635.142 672.094C639.333 677.915 641.05 685.071 641.606 691.498Z" fill="#FAFBFB"/>
<path d="M596.487 597.54C611.091 614.623 624.13 631.507 633.563 647.601C643.168 663.986 648.977 679.453 648.977 693.407C648.977 721.248 625.52 743.879 596.488 743.879C567.457 743.879 544 721.248 544 693.407C544 679.453 549.809 663.975 559.413 647.583C568.846 631.485 581.885 614.6 596.487 597.54Z" stroke="#181B1A" stroke-width="2"/>
<path d="M510.487 732.54C517.835 741.162 524.375 749.665 529.122 757.764C534.04 766.155 536.977 774.014 536.977 781.059C536.977 795.08 525.157 806.511 510.488 806.511C495.819 806.511 484 795.08 484 781.059C484 774.014 486.936 766.149 491.854 757.755C496.601 749.654 503.141 741.151 510.487 732.54Z" fill="#BDDDC8" stroke="#181B1A" stroke-width="2"/>
<path d="M533.592 795.399C529.303 799.868 522.714 803.252 512.711 801.844C488.547 798.436 483.713 772.667 489.511 759.872C485.438 767.372 483 774.512 483 781.059C483 795.669 495.304 807.511 510.488 807.511C515.037 807.541 519.524 806.452 523.553 804.34C527.582 802.228 531.029 799.157 533.592 795.399Z" fill="#91C4A6"/>
<path d="M515.075 758.262C515.62 760.461 516.818 762.455 519.209 762.12C519.981 762.002 520.692 761.629 521.227 761.06C521.762 760.491 522.091 759.759 522.162 758.981C522.267 757.544 521.857 756.118 521.006 754.956C520.242 753.737 519.18 752.733 517.921 752.039C517.534 751.837 517.097 751.748 516.662 751.781C516.227 751.815 515.81 751.971 515.459 752.23C515.157 752.519 514.919 752.868 514.762 753.256C514.605 753.643 514.532 754.059 514.548 754.476C514.577 755.755 514.754 757.025 515.075 758.262Z" fill="#FAFBFB"/>
<path d="M533.675 780.078C534.082 784.712 533.486 789.742 529.027 793.18C528.157 793.85 527.037 794.473 525.735 794.478C524.038 794.478 522.693 793.391 522.292 792.245C521.89 791.099 522.2 789.907 522.377 788.74C522.803 785.909 522.438 783.048 521.3 780.314C520.327 777.98 518.781 775.734 518.447 773.316C518.112 770.898 519.341 768.139 522.492 767.073C525.814 765.956 529.008 768.244 530.353 770.106C532.507 773.097 533.389 776.775 533.675 780.078Z" fill="#FAFBFB"/>
<path d="M510.487 732.54C517.835 741.162 524.375 749.665 529.122 757.764C534.04 766.155 536.977 774.014 536.977 781.059C536.977 795.08 525.157 806.511 510.488 806.511C495.819 806.511 484 795.08 484 781.059C484 774.014 486.936 766.149 491.854 757.755C496.601 749.654 503.141 741.151 510.487 732.54Z" stroke="#181B1A" stroke-width="2"/>
<path d="M34.8454 695.768C44.3138 694.321 56.3784 694.939 67.0816 703.053C77.9169 711.268 83.484 719.987 88.7102 728.925C93.934 737.859 98.8481 747.079 108.354 755.99L108.354 755.991L109.462 757.074L109.486 757.094C111.025 758.423 112.54 759.723 114.159 760.922C114.244 761.826 114.375 762.756 114.491 763.644C114.547 764.071 114.595 764.492 114.638 764.906L110.305 762.438C104.536 758.52 97.7566 756.352 90.7836 756.196C80.7734 755.795 71.0813 752.566 62.8314 746.882C54.5901 741.204 48.1245 733.309 44.1828 724.111C42.2014 718.178 38.8445 712.798 34.3864 708.41C30.5193 704.604 25.9189 701.638 20.8748 699.687C21.5195 699.417 22.2927 699.109 23.1798 698.783C26.0554 697.728 30.1146 696.491 34.8454 695.768Z" fill="#63A680" stroke="#181B1A" stroke-width="2"/>
<path d="M181.197 677.99C185.938 677.883 190.104 678.392 193.084 678.927C193.973 679.087 194.755 679.25 195.415 679.398C190.775 682.143 186.737 685.813 183.558 690.189C179.886 695.246 177.463 701.102 176.492 707.275C174.126 717.025 169.045 725.905 161.838 732.885C154.847 739.655 146.133 744.367 136.654 746.516L135.735 746.717C128.914 748.128 122.637 751.455 117.64 756.307L113.954 759.284L113.909 755.428C115.264 753.964 116.565 752.444 117.863 750.814L117.862 750.813L118.79 749.675L118.799 749.662L118.81 749.648C126.721 739.25 130.081 729.32 133.783 719.639C137.485 709.958 141.548 700.456 150.833 690.604C160.006 680.87 171.708 678.202 181.197 677.99Z" fill="#63A680" stroke="#181B1A" stroke-width="2"/>
<path d="M113.966 754.862L113.962 754.821C113.249 747.194 111.671 739.675 109.262 732.407L108.769 730.956L108.765 730.946L108.219 729.472C102.494 714.398 94.2889 704.275 86.467 693.986C78.394 683.368 70.6894 672.532 66.2144 655.725C61.781 639.073 66.8428 624.687 73.0705 614.41C76.1833 609.273 79.5777 605.181 82.1934 602.374C83.211 601.282 84.1095 600.386 84.8263 599.699C84.5761 606.683 85.812 613.652 88.465 620.137C91.4292 627.384 96.0763 633.821 102.021 638.916C112.04 648.469 117.892 661.649 120.188 674.632C122.489 687.639 121.197 700.311 117.091 708.805C114.478 714.122 114.081 720.038 114.518 726.65C114.736 729.959 115.166 733.472 115.644 737.195C116.121 740.903 116.648 744.823 117.073 749.005C116.997 750.252 117.063 751.587 117.147 752.905C117.236 754.276 117.344 755.624 117.36 756.947L117.36 756.99C117.997 768.642 116.933 780.324 114.198 791.668C112.957 796.736 111.939 800.535 111.107 803.305C110.481 805.39 109.969 806.862 109.559 807.845C109.55 807.707 109.543 807.562 109.537 807.411C109.436 805.018 109.638 801.344 109.871 798.228C109.987 796.679 110.109 795.283 110.202 794.273C110.249 793.769 110.288 793.361 110.316 793.08C110.33 792.94 110.341 792.83 110.348 792.757C110.35 792.745 110.35 792.734 110.351 792.723C113.185 782.472 114.43 771.848 114.041 761.219L113.966 754.862Z" fill="#63A680" stroke="#181B1A" stroke-width="2"/>
<path d="M555.304 361.834H400.288C396.181 361.834 392.851 365.164 392.851 369.272V503.745C392.851 507.852 396.181 511.182 400.288 511.182H555.304C559.412 511.182 562.742 507.852 562.742 503.745V369.272C562.742 365.164 559.412 361.834 555.304 361.834Z" fill="#FAFBFB"/>
<path d="M555.305 512.05H400.289C398.092 512.046 395.986 511.171 394.433 509.618C392.879 508.064 392.004 505.959 392 503.762V369.306C392 367.106 392.873 364.996 394.427 363.439C395.981 361.882 398.089 361.005 400.289 361H555.305C557.504 361.005 559.613 361.882 561.166 363.439C562.72 364.996 563.593 367.106 563.593 369.306V503.762C563.589 505.959 562.714 508.064 561.161 509.618C559.607 511.171 557.501 512.046 555.305 512.05ZM400.289 362.685C398.54 362.689 396.865 363.387 395.63 364.625C394.395 365.863 393.702 367.54 393.702 369.289V503.745C393.706 505.49 394.402 507.163 395.636 508.397C396.87 509.631 398.543 510.327 400.289 510.331H555.305C557.05 510.327 558.723 509.631 559.957 508.397C561.191 507.163 561.887 505.49 561.891 503.745V369.289C561.891 367.54 561.198 365.863 559.963 364.625C558.728 363.387 557.053 362.689 555.305 362.685H400.289Z" fill="#181B1A"/>
<path d="M473.644 481.091C499.963 481.091 521.299 459.755 521.299 433.436C521.299 407.117 499.963 385.781 473.644 385.781C447.325 385.781 425.989 407.117 425.989 433.436C425.989 459.755 447.325 481.091 473.644 481.091Z" fill="#FAFBFB"/>
<path d="M473.644 481.925C465.665 481.929 457.807 479.965 450.769 476.206C443.73 472.448 437.728 467.011 433.293 460.377C428.858 453.744 426.129 446.119 425.346 438.178C424.563 430.237 425.751 422.226 428.805 414.854C431.859 407.483 436.684 400.978 442.853 395.917C449.022 390.856 456.344 387.396 464.171 385.841C471.997 384.287 480.086 384.688 487.721 387.008C495.356 389.328 502.3 393.495 507.939 399.141C514.723 405.923 519.344 414.564 521.216 423.972C523.088 433.38 522.128 443.132 518.457 451.994C514.785 460.856 508.568 468.43 500.591 473.758C492.614 479.086 483.236 481.928 473.644 481.925ZM473.644 386.615C462.818 386.636 452.334 390.41 443.98 397.295C435.625 404.18 429.917 413.749 427.827 424.371C425.738 434.994 427.396 446.012 432.521 455.548C437.645 465.085 445.918 472.549 455.929 476.669C465.941 480.789 477.071 481.309 487.423 478.142C497.775 474.975 506.709 468.315 512.701 459.299C518.693 450.283 521.373 439.467 520.285 428.696C519.196 417.925 514.406 407.865 506.73 400.23C502.378 395.904 497.216 392.48 491.538 390.152C485.861 387.824 479.78 386.64 473.644 386.666V386.615Z" fill="#181B1A"/>
<path d="M519.886 421.948C517.846 413.755 513.665 406.252 507.772 400.205C501.879 394.159 494.486 389.786 486.348 387.536C478.211 385.285 469.621 385.236 461.459 387.395C453.297 389.554 445.854 393.843 439.894 399.822L473.593 433.521L519.886 421.948Z" fill="#181B1A"/>
<path d="M473.644 434.287C473.417 434.286 473.199 434.201 473.031 434.049L439.332 400.35C439.177 400.184 439.091 399.964 439.094 399.737C439.096 399.516 439.181 399.303 439.332 399.141C445.408 393.069 452.987 388.718 461.294 386.534C469.602 384.35 478.34 384.41 486.617 386.708C494.894 389.007 502.412 393.461 508.404 399.617C514.396 405.772 518.646 413.408 520.72 421.744C520.772 421.965 520.735 422.197 520.617 422.391C520.499 422.585 520.31 422.725 520.091 422.782L473.848 434.27L473.644 434.287ZM441.153 399.754L473.899 432.5L518.848 421.403C516.741 413.537 512.617 406.357 506.885 400.573C501.153 394.788 494.011 390.599 486.165 388.42C478.319 386.24 470.039 386.146 462.145 388.146C454.251 390.145 447.015 394.17 441.153 399.822V399.754Z" fill="#181B1A"/>
<path d="M519.886 421.948L473.644 433.436L459.875 479.066C467.934 481.497 476.493 481.75 484.681 479.8C492.87 477.849 500.396 473.764 506.493 467.961C512.59 462.157 517.042 454.842 519.394 446.76C521.747 438.678 521.917 430.117 519.886 421.948Z" fill="#91C4A6"/>
<path d="M473.644 481.96C468.898 481.959 464.178 481.259 459.637 479.883C459.528 479.854 459.426 479.803 459.339 479.732C459.251 479.662 459.178 479.574 459.126 479.475C459.043 479.267 459.043 479.035 459.126 478.828L472.895 433.198C472.935 433.055 473.013 432.925 473.121 432.824C473.229 432.722 473.363 432.651 473.508 432.619L519.75 421.131C519.86 421.104 519.973 421.1 520.084 421.117C520.195 421.135 520.301 421.174 520.397 421.233C520.589 421.346 520.73 421.529 520.789 421.744C522.563 428.893 522.688 436.352 521.151 443.556C519.615 450.76 516.459 457.519 511.922 463.322C507.386 469.125 501.587 473.819 494.967 477.048C488.346 480.278 481.078 481.957 473.712 481.96H473.644ZM460.947 478.556C468.764 480.757 477.019 480.886 484.901 478.931C492.783 476.976 500.021 473.004 505.903 467.405C511.785 461.807 516.109 454.774 518.451 446.998C520.792 439.221 521.07 430.97 519.257 423.054L474.308 434.219L460.947 478.556Z" fill="#181B1A"/>
<path d="M493.25 403.941L491.889 402.886L507.819 382.326H518.031V384.028H508.653L493.25 403.941Z" fill="#181B1A"/>
<path d="M542.846 382.973H527.171V384.675H542.846V382.973Z" fill="#181B1A"/>
<path d="M542.846 389.508H527.171V391.21H542.846V389.508Z" fill="#181B1A"/>
<path d="M542.846 396.026H527.171V397.728H542.846V396.026Z" fill="#181B1A"/>
<path d="M542.846 467.833H527.171V469.535H542.846V467.833Z" fill="#181B1A"/>
<path d="M542.846 474.369H527.171V476.071H542.846V474.369Z" fill="#181B1A"/>
<path d="M542.846 480.904H527.171V482.606H542.846V480.904Z" fill="#181B1A"/>
<path d="M421.427 466.54H405.752V468.242H421.427V466.54Z" fill="#181B1A"/>
<path d="M421.427 473.058H405.752V474.76H421.427V473.058Z" fill="#181B1A"/>
<path d="M421.427 479.594H405.752V481.296H421.427V479.594Z" fill="#181B1A"/>
<path d="M441.579 481.296H425.325V479.594H440.421L446.089 465.127L447.672 465.74L441.579 481.296Z" fill="#181B1A"/>
<path d="M537.162 455.63H535.46V448.005H510.185V446.303H537.162V455.63Z" fill="#181B1A"/>
<path d="M532.303 249.463C559.649 243.775 577.207 216.996 571.519 189.65C565.831 162.304 539.051 144.746 511.705 150.434C484.359 156.122 466.802 182.902 472.49 210.248C478.178 237.594 504.957 255.151 532.303 249.463Z" fill="#BDDDC8" stroke="#181B1A" stroke-width="2" stroke-miterlimit="10"/>
<path d="M522.008 112V136.277" stroke="#181B1A" stroke-width="2" stroke-miterlimit="10"/>
<path d="M522.008 263.722V288" stroke="#181B1A" stroke-width="2" stroke-miterlimit="10"/>
<path d="M610 200.008H585.722" stroke="#181B1A" stroke-width="2" stroke-miterlimit="10"/>
<path d="M458.277 200.008H434" stroke="#181B1A" stroke-width="2" stroke-miterlimit="10"/>
<path d="M584.231 137.769L567.068 154.948" stroke="#181B1A" stroke-width="2" stroke-miterlimit="10"/>
<path d="M476.948 245.067L459.769 262.231" stroke="#181B1A" stroke-width="2" stroke-miterlimit="10"/>
<path d="M459.769 137.769L476.948 154.948" stroke="#181B1A" stroke-width="2" stroke-miterlimit="10"/>
<path d="M567.068 245.067L584.231 262.231" stroke="#181B1A" stroke-width="2" stroke-miterlimit="10"/>
</svg>
